<svg version="1.1" xmlns="http://www.w3.org/2000/svg" xmlns:xlink="http://www.w3.org/1999/xlink" xmlns:ev="http://www.w3.org/2001/xml-events">
	<symbol id="logo" viewBox="0 0 46034 71494">
		<path fill="#575543" d="M34686 16l1113 0c-48,1322 -137,2586 -250,3810 -253,-1237 -540,-2506 -863,-3810zm-6944 0l5556 0c3042,11297 3123,18799 2531,25216 -1459,-7106 -4002,-15257 -8087,-25216zm-1770 0l-7169 0c6337,15378 13821,29642 17305,46621 443,-4804 509,-10217 -763,-17379 -1320,-7437 -4083,-16758 -9373,-29242zm-8913 0l-5067 0c4749,23367 19317,43284 24396,68029 2212,-23969 -11021,-47232 -19329,-68029zm-5047 71478l1250 0c-365,-1307 -695,-2596 -983,-3867 -125,1324 -214,2608 -267,3867zm2693 0l6207 0c-4302,-10049 -7240,-17899 -8913,-25274 -831,8857 -143,16009 2706,25274zm8018 0l7018 0c-5861,-15318 -14318,-30341 -18021,-46682 -1671,17854 4329,31313 11003,46682zm8680 0l4397 0c-4585,-24756 -18960,-44286 -24360,-68087 -2367,25224 12020,46420 19963,68087z"/>
		<path fill="#FEFEFE" d="M35739 21520c-33,-897 -138,-1851 -210,-2750 -145,-1825 -293,-3651 -440,-5477 -154,-1911 -308,-3823 -455,-5735 -49,-630 -97,-1261 -140,-1892 -13,-182 -25,-363 -34,-545 -3,-61 -6,-121 -7,-182 -12,-971 1060,-1701 1955,-1081 2286,1585 4095,3633 5429,6075 1833,3357 2699,7042 2825,10851l38 1159 -8871 914 -90 -1337zm-24202 32984c238,1973 527,3952 793,5922 192,1411 383,2823 568,4236 62,468 123,935 179,1403 17,137 33,275 47,413 5,51 10,103 13,155 49,922 -939,1668 -1826,1198 -3543,-1879 -6232,-4656 -8157,-8170 -2085,-3807 -3043,-7988 -3131,-12312l-23 -1143 9176 -965 121 1248c248,2561 818,5292 2089,7555l121 215 30 245z"/>
		<path fill="#00A0E3" fill-rule="nonzero" d="M36982 21488c-12,-589 -1358,-16661 -1282,-16608 2095,1452 3782,3336 5046,5649 1651,3024 2547,6464 2673,10296l-6437 663zm-26680 33165c191,1583 1656,12114 1592,12079 -3240,-1718 -5787,-4269 -7649,-7669 -1890,-3451 -2890,-7375 -2979,-11740l6793 -714c317,3269 1065,5946 2243,8044z"/>
		<path fill="#FEFEFE" d="M36090 7788c295,-2499 542,-5218 612,-7788l-1084 0c-48,1322 -136,2586 -249,3810 -254,-1236 -541,-2505 -863,-3810l-1388 0c3042,11297 3123,18800 2531,25216 -1459,-7105 -4003,-15256 -8087,-25216l-1770 0c5289,12484 8052,21805 9373,29242 1272,7162 1206,12575 763,17380 -1053,-5132 -2679,-10817 -5037,-17332 -1666,-4601 -3694,-9608 -6157,-15144 -2358,-5298 -4385,-9958 -6111,-14146l-1744 0c1997,4999 4404,10539 7242,16918 2002,4498 3693,8606 5125,12391l1 0c7332,19368 7762,30036 6960,38721 -1798,-8760 -5244,-19108 -11194,-32476 -959,-2179 -1859,-4221 -2717,-6166l1 0c-5575,-12795 -8894,-21557 -10486,-29388l-1346 0c-444,3837 -662,7389 -617,10794 45,3498 360,6851 939,10242 -354,2981 -574,5790 -643,8489 -22,902 -29,1794 -17,2677 46,3495 360,6851 940,10242 -473,3978 -707,7647 -661,11164 46,3494 361,6851 940,10242 -317,2666 -526,5195 -616,7628l1102 0c53,-1259 142,-2542 266,-3866 289,1271 619,2559 984,3866l1443 0c-2850,-9265 -3537,-16417 -2706,-25273 1673,7374 4611,15224 8913,25273l1811 0c-8572,-19740 -11672,-29792 -11301,-41966 47,-1532 146,-3092 298,-4716 349,1540 759,3105 1219,4699 2403,8338 6325,17658 11921,30236 1889,4246 3502,8143 4881,11747l1662 0c-1622,-4425 -3578,-9234 -5930,-14519 -5191,-11660 -8780,-20233 -11074,-27480l0 0c-3062,-9668 -3814,-16975 -2959,-26088 1714,7555 4755,15608 9230,26017 1201,2794 2500,5747 3910,8915 6427,14440 9698,24939 11219,33155l1391 0c762,-6635 862,-13304 -416,-21220 69,-8452 1232,-11720 -226,-21029 860,-7284 859,-14194 -278,-21441z"/>
		<path fill="#FEFEFE" d="M35870 53254c227,-822 334,-1665 334,-2522 0,-1648 -362,-3191 -1262,-4580 -986,-1522 -2666,-2577 -4281,-3319 -1062,-488 -2263,-883 -3373,-1249 -2023,-668 -4072,-1277 -6120,-1869 -2184,-631 -4374,-1322 -6494,-2145 -1482,-575 -3037,-1248 -4383,-2097 -2648,-1672 -4859,-3849 -6325,-6633 -1445,-2743 -2068,-5724 -2068,-8811 0,-3509 845,-6828 2504,-9917 1165,-2170 2731,-4015 4709,-5482l2225 -1650 475 15245 -15 114c-47,369 -69,741 -69,1112 0,1820 484,3462 1731,4810 1726,1864 7785,3590 10178,4239 2514,683 5037,1409 7500,2259 1625,560 3365,1206 4872,2038 3133,1728 5818,4076 7584,7219 1730,3078 2442,6491 2442,10002 0,3723 -900,7226 -2655,10507 -1247,2330 -2822,4433 -4980,5957l-2192 1548 -337 -14776z"/>
		<path fill="#00A0E3" fill-rule="nonzero" d="M37122 54117c353,-1075 531,-2201 531,-3385 0,-2053 -494,-3832 -1495,-5368 -989,-1536 -2624,-2813 -4892,-3847 -1471,-685 -4690,-1749 -9696,-3194 -4993,-1445 -8503,-2798 -10506,-4075 -2598,-1627 -4537,-3665 -5817,-6083 -1267,-2418 -1901,-5125 -1901,-8136 0,-3285 791,-6362 2332,-9231 1079,-2009 2507,-3678 4296,-5005l385 12362c-53,422 -80,854 -80,1296 0,2357 709,4288 2116,5794 1394,1521 5006,3072 10861,4653 5855,1597 9873,2981 12053,4167 3168,1764 5512,3984 7021,6661 1508,2692 2255,5794 2255,9292 0,3482 -836,6745 -2484,9823 -1163,2175 -2687,4005 -4596,5501l-383 -11225z"/>
	</symbol>
</svg>
