<?xml version="1.0" encoding="UTF-8"?>
<!DOCTYPE svg PUBLIC "-//W3C//DTD SVG 1.1//EN" "http://www.w3.org/Graphics/SVG/1.1/DTD/svg11.dtd">
<!-- Creator: CorelDRAW X8 -->
<svg xmlns="http://www.w3.org/2000/svg" xml:space="preserve" width="250px" height="2px" version="1.1" style="shape-rendering:geometricPrecision; text-rendering:geometricPrecision; image-rendering:optimizeQuality; fill-rule:evenodd; clip-rule:evenodd"
viewBox="0 0 5279 42"
 xmlns:xlink="http://www.w3.org/1999/xlink">
 <defs>
  <style type="text/css">
   <![CDATA[
    .fil1 {fill:none}
    .fil0 {fill:#4B5441;fill-rule:nonzero}
   ]]>
  </style>
   <clipPath id="id0">
    <path d="M5271 42l-5263 0c-5,0 -8,-3 -8,-8l0 -26c0,-5 3,-8 8,-8l5263 0c4,0 8,3 8,8l0 26c0,5 -4,8 -8,8z"/>
   </clipPath>
 </defs>
 <g id="Слой_x0020_1">
  <metadata id="CorelCorpID_0Corel-Layer"/>
  <g>
  </g>
  <g style="clip-path:url(#id0)">
   <g>
    <polygon class="fil0" points="5279,0 2639,41 0,0 2639,-41 "/>
   </g>
  </g>
  <path class="fil1" d="M5271 42l-5263 0c-5,0 -8,-3 -8,-8l0 -26c0,-5 3,-8 8,-8l5263 0c4,0 8,3 8,8l0 26c0,5 -4,8 -8,8z"/>
 </g>
</svg>
