<svg xmlns="http://www.w3.org/2000/svg" xml:space="preserve" width="303px" height="500px" version="1.1" style="shape-rendering:geometricPrecision; text-rendering:geometricPrecision; image-rendering:optimizeQuality; fill-rule:evenodd; clip-rule:evenodd" viewBox="0 0 12347 20396" xmlns:xlink="http://www.w3.org/1999/xlink">
   <path d="M4834 7981c466,-154 832,152 935,490 142,464 -170,831 -498,932 -915,282 -1401,-1104 -437,-1422zm-4032 10184c191,89 504,162 709,228l4945 1539c1050,325 1871,682 3069,298 972,-312 1604,-925 2025,-1673 476,-848 468,-2070 550,-3149 53,-700 266,-2946 245,-3464 -42,-1023 -444,-1884 -1131,-2580 -768,-779 -1389,-914 -2439,-1258 -939,-307 -1866,-612 -2803,-924 -520,-173 -974,-330 -1546,-91 -989,411 -1361,1496 -875,2424 304,582 1399,1121 2081,1616 747,542 561,422 1417,422 641,0 1293,-173 1298,567l-1 3697c0,731 41,1079 -403,1452 -389,328 -1010,239 -1598,239l-5552 0 9 657z"/>
   <path d="M6996 2981c-541,156 -865,645 -1143,1047l-2271 3158c-154,205 -3506,6102 -3546,6240 740,180 1438,202 2193,-7 676,-188 1293,-541 1793,-1018 4,-4 12,-11 17,-17 -56,-515 6,-632 329,-862 243,-173 499,-378 741,-543 -178,-242 -1204,-673 -1573,-1213 -1004,-1466 350,-3323 1996,-2876 352,96 713,225 1062,345 259,89 831,304 1072,337l613 -1148c212,-390 406,-786 618,-1171 568,-1029 -73,-2131 -864,-2304 0,1055 582,785 608,1629 19,630 -482,1143 -1092,1161 -944,28 -1583,-1095 -840,-1911 230,-252 287,-398 287,-847z"/>
   <path d="M0 16921c0,41 0,374 0,434l7225 0c588,0 972,-399 972,-980l0 -4284c0,-299 -169,-452 -489,-374 0,1318 0,2636 0,3954 0,743 128,1205 -805,1194 -57,0 -183,-5 -232,7l-6671 49z"/>
   <path d="M7381 4044c334,-90 632,139 701,411 92,363 -138,648 -404,722 -758,210 -1082,-920 -297,-1133zm23 -4022c-294,97 -262,352 -261,684 0,556 41,2479 -51,2771 -148,470 -679,632 -538,1333 239,1188 2046,948 1937,-290 -56,-639 -550,-591 -601,-1289 -57,-791 22,-1957 -3,-2818 -8,-265 -198,-485 -483,-391z"/>
   <path d="M4870 8115c-275,90 -510,386 -388,762 88,270 392,503 761,381 742,-247 382,-1391 -373,-1143z"/>
   <path d="M7404 4188c-587,173 -318,1023 247,847 483,-151 332,-1017 -247,-847z"/>
</svg>
