<svg xmlns="http://www.w3.org/2000/svg" xml:space="preserve" width="581px" height="500px" version="1.1" style="shape-rendering:geometricPrecision; text-rendering:geometricPrecision; image-rendering:optimizeQuality; fill-rule:evenodd; clip-rule:evenodd" viewBox="0 0 40574 34895" xmlns:xlink="http://www.w3.org/1999/xlink">
     <path d="M21716 26868l-8027 0 0 8027 8027 0 0 -8027zm-618 618l-6791 0 0 6791 6791 0 0 -6791z"/>
     <path d="M20164 28340l-4923 0 0 5083 4923 0 0 -5083zm-887 1020l-595 0 0 3078 595 0 0 -3078zm-910 5l-595 0 0 3078 595 0 0 -3078zm-907 -3l-595 0 -2 3081 595 0 2 -3081zm-912 -2l-595 0 0 3078 595 0 0 -3078z"/>
     <path d="M12660 26868l-8027 0 0 8027 8027 0 0 -8027zm-618 618l-6792 0 0 6791 6792 0 0 -6791z"/>
     <path d="M11108 28340l-4923 0 0 5083 4923 0 0 -5083zm-888 1020l-594 0 0 3078 594 0 0 -3078zm-909 5l-595 0 0 3078 595 0 0 -3078zm-907 -3l-595 0 -2 3081 594 0 3 -3081zm-912 -2l-595 0 0 3078 595 0 0 -3078z"/>
     <path d="M17188 18119l-8027 0 0 8027 8027 0 0 -8027zm-618 618l-6791 0 0 6792 6791 0 0 -6792z"/>
     <path d="M15636 19591l-4923 0 0 5083 4923 0 0 -5083zm-887 1020l-595 0 0 3078 595 0 0 -3078zm-910 5l-595 0 0 3078 595 0 0 -3078zm-907 -3l-595 0 -2 3081 595 0 2 -3081zm-912 -2l-595 0 0 3078 595 0 0 -3078z"/>
    <path d="M17010 8683c2,-381 0,-761 0,-1142 1,-1104 140,-840 -2461,-840 -2575,0 -2456,-261 -2456,840l1 1142 -471 -2c0,-518 -9,-1043 -1,-1560 8,-491 221,-792 657,-870 -33,-371 -13,-800 -13,-1177 0,-1397 36,-1175 2283,-1175 2316,0 2291,-210 2291,1217 0,364 18,774 -10,1133 468,85 649,405 648,915 0,506 0,1013 -1,1519l-467 0z"/>
    <path d="M10057 9571c-2680,0 -2516,209 -2516,-1204 1,-704 -131,-1206 643,-1208 610,-2 1221,1 1831,1 32,-43 42,34 42,-144l1164 -4 -7 2737c-1280,1 -1154,72 -1157,-178z"/>
    <path d="M17154 5400c40,-328 52,-1229 -90,-1457 -252,-403 -725,-287 -1275,-299 281,-562 1272,-889 1934,-142 595,672 167,1726 -569,1898z"/>
    <path d="M12973 12890c101,-78 223,-52 376,-52 408,-1 392,-104 360,944 -37,31 -97,161 -113,175 -834,309 -74,1105 295,231 366,318 -99,1013 -754,786 -526,-183 -497,-851 -89,-1099 -107,-110 -76,15 -101,-173l26 -812z"/>
    <path d="M16187 9453c-5,-18 -26,-1920 35,-2103 121,-185 404,-121 455,59 45,162 15,1208 15,1458 0,175 29,580 -56,690 -123,159 -383,107 -449,-104z"/>
    <path d="M13581 9007c-32,310 -502,377 -517,-72 -11,-313 -21,-827 1,-1131 27,-366 506,-389 520,68 8,292 24,862 -4,1135z"/>
    <path d="M12798 9044c-43,224 -511,412 -511,-181 0,-270 -30,-868 6,-1099 42,-270 513,-423 512,180 0,238 29,912 -7,1100z"/>
    <path d="M13573 12348l-506 -8 0 -2834c226,98 300,102 516,-1l-10 2843z"/>
    <path d="M15407 9453c-5,-18 -26,-1920 35,-2103 121,-185 404,-121 455,59 46,162 15,1208 15,1458 0,175 30,580 -56,690 -123,159 -383,107 -449,-104z"/>
    <path d="M14628 9453c-5,-18 -26,-1920 35,-2103 121,-185 404,-121 455,59 46,162 15,1208 15,1458 0,175 30,580 -55,690 -124,159 -383,107 -450,-104z"/>
    <path d="M13850 9453c-6,-18 -26,-1920 34,-2103 122,-185 404,-121 455,59 46,162 15,1208 15,1458 0,175 30,580 -55,690 -124,160 -383,107 -449,-104z"/>
    <path d="M11946 5400c-41,-328 -53,-1229 89,-1457 252,-403 725,-287 1275,-299 -281,-562 -1272,-889 -1934,-142 -594,672 -167,1726 570,1898z"/>
    <polygon points="37846,24856 36096,24856 36096,26401 37846,26401 "/>
    <polygon points="40126,26232 38949,26232 38949,25025 40126,25025 "/>
    <polygon points="39496,26337 38955,26337 38955,26694 39496,26694 "/>
    <polygon points="38204,25249 37957,25249 37957,26031 38204,26031 "/>
    <polygon points="38478,24856 38323,24856 38323,26401 38478,26401 "/>
    <polygon points="39218,33880 28398,33880 28398,34895 39218,34895 "/>
    <polygon points="37565,6461 36977,6461 36977,24613 37565,24613 "/>
    <polygon points="31249,5908 37857,5908 37857,6233 31249,6233 "/>
    <polygon points="36706,7364 30910,7364 30910,8059 36706,8059 "/>
    <polygon points="34963,0 32653,0 32653,5683 34963,5683 "/>
    <path d="M15458 3449c362,-722 1636,-1142 2487,-182 160,181 263,384 316,594l14083 0 -6 -3861 -32338 2429 0 1432 10810 0c53,-210 155,-413 316,-594 850,-960 2124,-540 2486,182l1846 0z"/>
    <polygon points="34993,7187 34322,6408 34302,6408 34302,7187 "/>
    <polygon points="34148,6408 33468,6408 33468,7187 34148,7187 "/>
    <polygon points="32622,7187 33294,6408 33314,6408 33314,7187 "/>
    <polygon points="35252,6414 34529,6414 35196,7187 36443,7187 "/>
    <polygon points="32364,6408 33087,6408 32420,7181 31173,7181 "/>
    <polygon points="36706,8267 36024,9106 36024,8267 "/>
    <polygon points="30910,8267 31592,9106 31592,8267 "/>
    <polygon points="34801,8267 34448,9233 34448,8267 "/>
    <polygon points="32805,8274 33159,9240 33159,8274 "/>
    <path d="M29559 33605l2351 -6729c112,153 291,243 481,243 190,0 430,-90 543,-243l-1035 6729 -2340 0z"/>
    <path d="M38051 33605l-2351 -6729c-113,153 -291,243 -481,243 -190,0 -430,-90 -543,-243l1035 6729 2340 0z"/>
    <path d="M34489 26876c-396,324 -966,324 -1362,0l-973 6729 3308 0 -973 -6729z"/>
    <path d="M35856 8275l-911 0 -502 1426 -150 0 0 -1426 -978 0 0 1426 -149 1 -521 -1427 -885 0 0 18613 156 -261c130,176 335,280 554,280 219,0 424,-104 554,-280 456,373 1112,373 1568,0 130,176 335,280 554,280 219,0 424,-104 554,-280l156 261 0 -18613z"/>
    <polygon points="40257,25025 40574,25135 40574,26011 40257,26232 "/>
    <polygon points="38834,25249 38586,25249 38586,26031 38834,26031 "/>
</svg>
