<svg xmlns="http://www.w3.org/2000/svg" xml:space="preserve" width="438px" height="500px" version="1.1" style="shape-rendering:geometricPrecision; text-rendering:geometricPrecision; image-rendering:optimizeQuality; fill-rule:evenodd; clip-rule:evenodd" viewBox="0 0 30649 34984" xmlns:xlink="http://www.w3.org/1999/xlink">
   <path d="M27741 16438c5,-1113 1,-2227 1,-3341 1,-3234 409,-2459 -7205,-2459 -7538,0 -7189,-765 -7188,2459l1 3343 -1378 -5c0,-1517 -26,-3054 -2,-4567 22,-1438 647,-2320 1922,-2548 -96,-1085 -39,-2341 -39,-3445 0,-4088 106,-3439 6684,-3439 6781,0 6706,-617 6706,3561 0,1067 52,2266 -30,3317 1371,250 1900,1185 1899,2679 -1,1482 0,2964 -3,4447l-1368 -2z"/>
   <path d="M7388 19040c-7844,0 -7364,609 -7363,-3525 0,-2061 -385,-3531 1881,-3537 1786,-6 3573,3 5359,3 93,-127 123,98 124,-422l3408 -11 -23 8013c-3745,1 -3378,208 -3386,-521z"/>
   <path d="M28162 6829c118,-961 154,-3597 -263,-4265 -736,-1179 -2121,-840 -3732,-876 824,-1644 3724,-2601 5661,-414 1741,1965 490,5050 -1666,5555z"/>
   <path d="M15925 28755c295,-231 653,-152 1099,-153 1196,-4 1148,-303 1055,2764 -108,90 -284,469 -330,511 -2442,905 -219,3235 863,675 1071,932 -289,2966 -2207,2301 -1542,-535 -1456,-2490 -261,-3216 -315,-322 -223,43 -295,-505l76 -2377z"/>
   <path d="M25332 18692c-16,-52 -76,-5619 102,-6155 355,-542 1182,-353 1331,174 134,473 44,3535 44,4267 0,511 87,1698 -162,2020 -361,466 -1121,313 -1315,-306z"/>
   <path d="M17704 17388c-94,907 -1470,1104 -1515,-212 -31,-916 -61,-2420 4,-3308 79,-1073 1481,-1141 1521,198 25,855 73,2522 -10,3322z"/>
   <path d="M15412 17496c-127,656 -1496,1207 -1496,-531 0,-789 -89,-2539 17,-3217 123,-788 1501,-1236 1499,529 -1,697 86,2667 -20,3219z"/>
   <path d="M17680 27166l-1481 -22 1 -8295c659,287 878,299 1510,-5l-30 8322z"/>
   <path d="M23050 18692c-17,-52 -77,-5619 101,-6155 355,-542 1182,-353 1332,174 134,473 43,3535 43,4267 0,511 88,1698 -162,2020 -361,466 -1121,313 -1314,-306z"/>
   <path d="M20770 18692c-16,-52 -76,-5619 102,-6155 355,-542 1182,-353 1331,174 134,473 44,3535 44,4267 0,511 87,1698 -162,2020 -362,466 -1121,313 -1315,-306z"/>
   <path d="M18490 18692c-16,-52 -76,-5619 102,-6155 355,-542 1182,-353 1331,174 134,473 44,3535 44,4267 0,511 88,1698 -162,2020 -361,467 -1121,313 -1315,-306z"/>
   <path d="M12917 6829c-118,-961 -154,-3597 263,-4265 736,-1179 2121,-840 3732,-876 -824,-1644 -3725,-2601 -5662,-414 -1740,1965 -490,5050 1667,5555z"/>
</svg>
