<svg xmlns="http://www.w3.org/2000/svg" xml:space="preserve" width="338px" height="500px" version="1.1" style="shape-rendering:geometricPrecision; text-rendering:geometricPrecision; image-rendering:optimizeQuality; fill-rule:evenodd; clip-rule:evenodd" viewBox="0 0 10789 15965" xmlns:xlink="http://www.w3.org/1999/xlink">
   <path d="M1098 9057c144,-31 849,-29 973,22 307,124 255,395 173,726 -418,1691 484,3412 2027,4078 1163,501 2379,321 3328,-283 467,-297 548,-462 832,-753 362,-372 891,-107 906,321 17,499 -1115,1373 -1541,1616 -1567,893 -3477,852 -4934,-67 -1671,-1054 -2588,-3029 -2174,-5023 68,-328 89,-567 410,-637zm6245 -7646c343,-112 450,423 155,515 -326,102 -546,-386 -155,-515zm-2438 -207c31,-578 16,-505 -330,-852 -162,-162 -295,-349 -461,-352 -357,-7 -149,323 -323,492 -177,173 -487,-42 -487,322l0 1699c0,501 575,-23 575,597 0,522 30,959 -184,1443 -379,857 -1926,2065 -2612,2967 -2842,3741 293,9082 4959,8383 1715,-257 3098,-1295 3888,-2797 574,-1091 626,-2456 773,-3680 29,-243 143,-796 50,-992 -122,-255 -493,-357 -717,-111 45,216 202,576 283,798 120,328 31,613 -291,662 -277,42 -812,-85 -984,95 -124,130 -308,469 -419,638 -283,434 -560,868 -831,1304 -322,517 -524,778 -1055,1081 -472,269 -1146,381 -1750,243 -1442,-329 -2297,-1833 -1794,-3282 133,-383 259,-477 373,-689 -65,-120 -289,-282 -399,-388 -150,-144 -282,-277 -245,-503 234,-488 3515,-3472 3595,-3983 161,-602 590,-464 671,-846 51,-239 -51,-476 127,-629 182,-157 466,68 466,-288l0 -1722c0,-380 -286,-141 -483,-316 -206,-183 61,-496 -316,-496 -189,0 -294,163 -472,341 -74,74 -131,132 -207,206 -74,73 -130,109 -130,265l3 1286c0,564 171,1614 -641,1632 -318,-3 -564,-236 -613,-513 -37,-211 -19,-1664 -19,-2015z"/>
   <path d="M1116 9169c-267,60 -296,404 -342,682 -154,929 -41,1802 315,2644 405,953 1129,1716 1914,2174 909,530 2101,815 3328,554 1218,-260 2306,-1027 2815,-1799 299,-452 -309,-853 -628,-513 -132,141 -270,348 -494,516 -196,147 -370,294 -616,419 -2895,1470 -5845,-990 -5319,-3873 50,-273 232,-633 -26,-772 -111,-59 -803,-64 -947,-32z"/>
   <path d="M3654 9069c145,-95 332,-361 508,-514 176,-153 326,-371 499,-535l1499 -1554c167,-181 342,-346 508,-526 163,-177 464,-366 190,-638 -426,-422 -238,-381 -379,-648l-3364 3497c-103,110 -113,268 -20,387 99,127 439,446 559,531z"/>
   <path d="M6838 4304c0,-136 32,-118 248,-241 350,-200 270,-206 637,8 121,70 234,86 234,233 0,611 48,527 -239,688 -381,213 -259,214 -641,0 -288,-161 -239,-81 -239,-688zm3134 4965c-53,-228 -205,-586 -292,-818 -102,-273 -192,-534 -295,-807l-815 -2239c-64,-191 -18,-112 -138,-137 -119,-26 -96,-92 -195,-357 -75,-200 -89,-230 -113,-462 -66,-626 -862,-891 -1301,-375 -173,204 -207,579 -52,833 193,313 321,250 679,424 571,278 674,630 925,1302l889 2440c172,477 348,281 708,196z"/>
   <polygon points="5022,2065 6057,2065 6056,1265 5020,1265 "/>
   <path d="M7334 4253c352,-99 494,434 167,548 -372,129 -583,-432 -167,-548zm-382 511c82,68 362,267 445,267 55,0 400,-204 445,-267l0 -460c-40,-80 -134,-110 -218,-157 -266,-150 -184,-154 -468,8 -259,147 -204,53 -204,609z"/>
   <path d="M10081 9340c-59,34 -257,104 -342,130 -225,71 -248,-5 -413,-45l-164 251c475,-16 1009,94 1093,-218 41,-151 -76,-382 -125,-516 -42,-115 -128,-396 -184,-480 -130,137 -92,141 13,422 51,137 149,327 122,456z"/>
   <path d="M7352 4365c-232,66 -127,402 107,328 188,-60 130,-395 -107,-328z"/>
</svg>
