<?xml version="1.0" encoding="UTF-8"?>
<!DOCTYPE svg PUBLIC "-//W3C//DTD SVG 1.1//EN" "http://www.w3.org/Graphics/SVG/1.1/DTD/svg11.dtd">
<!-- Creator: CorelDRAW X8 -->
<svg xmlns="http://www.w3.org/2000/svg" xml:space="preserve" width="155px" height="117px" version="1.1" style="shape-rendering:geometricPrecision; text-rendering:geometricPrecision; image-rendering:optimizeQuality; fill-rule:evenodd; clip-rule:evenodd"
viewBox="0 0 7201 5404"
 xmlns:xlink="http://www.w3.org/1999/xlink">
 <defs>
  <style type="text/css">
   <![CDATA[
    .fil0 {fill:#575543}
    .fil1 {fill:#FEFEFE;fill-rule:nonzero}
   ]]>
  </style>
 </defs>
 <g id="Слой_x0020_1">
  <metadata id="CorelCorpID_0Corel-Layer"/>
  <polygon class="fil0" points="0,5404 7201,5404 7201,0 "/>
  <polygon class="fil1" points="4857,2407 4857,3303 4448,3303 5265,4199 6082,3303 5673,3303 5673,2407 "/>
  <path class="fil1" d="M4286 5035c-16,11 -35,20 -57,26 -22,7 -45,10 -69,10 -31,0 -57,-5 -79,-15 -21,-10 -39,-24 -52,-43 -14,-18 -24,-40 -30,-66 -6,-26 -9,-55 -9,-87 0,-68 15,-120 45,-156 30,-36 73,-54 129,-54 26,0 47,2 65,6 18,4 35,10 49,17l-18 56c-13,-7 -26,-13 -41,-17 -15,-4 -31,-6 -49,-6 -76,0 -114,52 -114,154 0,21 2,40 6,59 4,18 11,34 20,49 10,14 22,25 37,34 16,8 35,13 57,13 19,0 37,-3 52,-9 15,-6 28,-13 37,-20l21 49zm190 -155l-37 0 0 181 -65 0 0 -401 65 0 0 181 34 -11 129 -170 70 0 -125 161 -34 26 42 33 134 181 -79 0 -134 -181zm276 -191c20,-12 44,-21 71,-27 27,-6 55,-9 85,-9 28,0 50,4 67,11 17,8 29,18 38,30 9,12 15,25 18,39 3,15 4,29 4,44 0,32 0,63 -2,94 -2,30 -2,59 -2,86 0,20 0,39 2,57 2,17 5,34 9,49l-48 0 -16 -57 -4 0c-5,8 -11,15 -19,23 -7,7 -15,13 -26,19 -10,5 -22,10 -35,14 -13,4 -29,6 -46,6 -17,0 -33,-3 -48,-9 -14,-5 -27,-12 -38,-22 -10,-10 -19,-22 -25,-36 -6,-14 -9,-30 -9,-48 0,-23 5,-43 14,-59 10,-15 23,-28 41,-37 17,-10 38,-16 62,-20 25,-4 52,-6 81,-6 8,0 15,0 22,0 7,0 15,0 22,1 2,-16 3,-30 3,-43 0,-30 -6,-50 -18,-62 -12,-12 -33,-18 -64,-18 -9,0 -19,1 -30,2 -10,2 -21,4 -32,6 -11,3 -21,6 -31,9 -10,4 -19,8 -26,12l-20 -49zm114 322c15,0 28,-2 40,-6 12,-4 22,-9 31,-15 8,-6 15,-13 21,-20 5,-8 10,-15 12,-22l0 -67c-7,0 -15,-1 -23,-1 -7,0 -15,0 -22,0 -17,0 -33,1 -49,2 -16,2 -30,6 -42,11 -12,5 -22,12 -29,21 -7,9 -11,20 -11,33 0,19 7,34 21,46 13,12 30,18 51,18zm332 -351l0 109c0,14 1,27 3,39 1,11 5,21 9,29 5,9 12,15 21,20 9,4 21,7 36,7 25,0 44,-3 60,-9 15,-5 27,-11 35,-17l0 -178 65 0 0 401 -65 0 0 -169c-8,6 -21,12 -38,18 -17,7 -40,10 -69,10 -20,0 -38,-2 -53,-7 -15,-4 -27,-11 -37,-22 -10,-11 -18,-25 -23,-43 -5,-17 -8,-40 -8,-66l0 -122 64 0zm346 29c20,-12 44,-21 71,-27 27,-6 55,-9 85,-9 27,0 50,4 67,11 17,8 29,18 38,30 9,12 15,25 18,39 3,15 4,29 4,44 0,32 -1,63 -2,94 -2,30 -3,59 -3,86 0,20 1,39 3,57 1,17 4,34 9,49l-48 0 -17 -57 -4 0c-4,8 -10,15 -18,23 -7,7 -16,13 -26,19 -10,5 -22,10 -35,14 -13,4 -29,6 -46,6 -17,0 -33,-3 -48,-9 -14,-5 -27,-12 -38,-22 -11,-10 -19,-22 -25,-36 -6,-14 -9,-30 -9,-48 0,-23 4,-43 14,-59 10,-15 23,-28 41,-37 17,-10 38,-16 62,-20 25,-4 52,-6 81,-6 8,0 15,0 22,0 7,0 15,0 22,1 2,-16 3,-30 3,-43 0,-30 -6,-50 -18,-62 -12,-12 -33,-18 -64,-18 -9,0 -19,1 -30,2 -10,2 -21,4 -32,6 -11,3 -21,6 -31,9 -10,4 -19,8 -26,12l-20 -49zm114 322c15,0 28,-2 40,-6 12,-4 22,-9 30,-15 9,-6 16,-13 22,-20 5,-8 10,-15 12,-22l0 -67c-7,0 -15,-1 -23,-1 -7,0 -15,0 -23,0 -16,0 -32,1 -48,2 -16,2 -30,6 -42,11 -12,5 -22,12 -29,21 -7,9 -11,20 -11,33 0,19 7,34 20,46 14,12 31,18 52,18zm547 -295l-126 0 0 345 -65 0 0 -345 -126 0 0 -56 317 0 0 56zm127 289c20,3 39,5 57,5 34,0 59,-7 75,-20 16,-13 24,-32 24,-56 0,-21 -7,-39 -23,-53 -16,-14 -40,-21 -73,-21 -9,0 -19,1 -30,1 -11,1 -20,2 -30,5l0 139zm0 -192c13,-2 26,-4 37,-4 12,-1 23,-2 34,-2 28,0 52,3 71,10 19,6 35,14 47,25 12,11 21,23 26,38 5,15 8,30 8,47 0,49 -15,84 -44,106 -29,22 -74,33 -136,33 -34,0 -70,-2 -107,-5l0 -401 64 0 0 153z"/>
 </g>
</svg>
