<svg xmlns="http://www.w3.org/2000/svg" xml:space="preserve" width="741px" height="500px" version="1.1" style="shape-rendering:geometricPrecision; text-rendering:geometricPrecision; image-rendering:optimizeQuality; fill-rule:evenodd; clip-rule:evenodd" viewBox="0 0 72424 48854" xmlns:xlink="http://www.w3.org/1999/xlink">
  <path d="M34522 48854c0,-2786 -238,-16034 233,-18193 510,-2334 507,-3286 507,-5772 0,-2704 -97,-24005 252,-24535 349,-531 1122,-415 1460,21 339,436 186,21180 170,23688 6,6315 831,5960 832,12067 0,2149 -14,4298 -13,6446l1 5634c-3,565 52,523 -392,574 -344,-24 -391,55 -372,-1240l-13 -11562 -1998 3c-48,1762 -1,7624 6,10062 1,557 -1,1111 12,1668 27,1121 218,1089 -685,1139zm1112 -581l1124 0c91,0 165,75 165,166l0 250c0,91 -74,165 -165,165l-1124 0c-90,0 -165,-74 -165,-165l0 -250c0,-91 74,-166 165,-166zm0 -969l1124 0c91,0 165,74 165,165l0 339c0,91 -74,165 -165,165l-1124 0c-91,0 -165,-74 -165,-165l0 -339c0,-91 74,-165 165,-165zm0 -970l1124 0c91,0 165,74 165,165l0 339c0,91 -74,165 -165,165l-1124 0c-91,0 -165,-74 -165,-165l0 -339c0,-91 74,-165 165,-165zm0 -970l1124 0c91,0 165,74 165,165l0 339c0,91 -74,166 -165,166l-1124 0c-91,0 -165,-75 -165,-166l0 -339c0,-91 74,-165 165,-165zm-12 -970l1125 0c91,0 165,75 165,166l0 339c0,91 -74,165 -165,165l-1125 0c-90,0 -165,-74 -165,-165l0 -339c0,-91 75,-166 165,-166zm0 -969l1125 0c91,0 165,74 165,165l0 339c0,91 -74,165 -165,165l-1125 0c-90,0 -165,-74 -165,-165l0 -339c0,-91 75,-165 165,-165zm0 -980l1125 0c91,0 165,75 165,166l0 339c0,91 -74,165 -165,165l-1125 0c-90,0 -165,-74 -165,-165l0 -339c0,-91 75,-166 165,-166zm23 -979l1124 0c91,0 166,75 166,166l0 339c0,90 -75,165 -166,165l-1124 0c-90,0 -165,-75 -165,-165l0 -339c0,-91 75,-166 165,-166zm-11 -979l1124 0c91,0 165,74 165,165l0 339c0,91 -74,166 -165,166l-1124 0c-91,0 -165,-75 -165,-166l0 -339c0,-91 74,-165 165,-165zm-24453 5412c-398,824 -1299,1453 -2454,898 -1407,-675 -903,-980 -2308,157 -1545,1250 -3669,1378 -5197,70 -1263,-1081 -1824,-3929 -314,-5245 987,-861 4599,-1765 5835,-649 -268,532 -411,408 -1056,633 -888,310 -3422,1237 -2197,2493 1404,1440 5639,-2949 7608,-332 -4019,34 -2516,2415 83,1975zm10338 -683c-695,14 -733,-88 -1146,168 -515,875 -1146,1657 -2339,1788 -1353,149 -2418,-545 -2777,-1279 667,-3 2162,75 2631,-194 1200,-686 57,-1585 -820,-1771 -196,-41 -444,-35 -648,-37 -392,-3 -794,7 -1188,7 474,-890 1861,-1588 3344,-1162 2000,573 692,1738 2964,1749l-21 731zm-11679 -985l7206 0c1416,245 1330,1267 -123,1387l-6805 12c-1464,-82 -1709,-1149 -278,-1399zm24429 1979l-12403 -13 3 -2446 12385 -18 15 2477zm16183 -2418l-4 2525 -12195 -18 -13 -2566 12212 59zm3785 1000c22,-1011 3259,-664 4774,-664 1263,74 4315,-373 4301,795 -12,1057 -3114,710 -4407,761 -1305,-49 -4699,453 -4668,-892zm7041 -927c261,-509 654,-867 1497,-974 2255,-487 4607,2504 5937,1392 1800,-1504 -2581,-2419 -3133,-3141 1144,-1100 4361,-384 5566,416 3389,2248 -534,8890 -5038,5542 -1050,-780 -1051,-1202 -2301,-437 -1093,669 -2189,203 -2540,-616 2606,74 3861,-2105 12,-2182zm-10523 1389c-15,-199 -4,-497 -5,-754l1059 -77c1565,-2593 4308,-2102 5195,-488 -953,-7 -3014,-231 -3040,961 -28,1278 1933,953 2998,1093 -313,304 -243,575 -1003,926 -2625,1209 -3726,-1120 -4172,-1644l-1032 -17z"/>
</svg>
