<svg xmlns="http://www.w3.org/2000/svg" xml:space="preserve" width="338px" height="500px" version="1.1" style="shape-rendering:geometricPrecision; text-rendering:geometricPrecision; image-rendering:optimizeQuality; fill-rule:evenodd; clip-rule:evenodd" viewBox="0 0 12047 17812" xmlns:xlink="http://www.w3.org/1999/xlink">
  <path d="M6314 2064c2086,-46 3826,2123 3089,4531 -314,1023 -925,1766 -1774,2186 -1076,434 -2300,365 -3592,347 -20,-388 -31,-6709 -20,-7055l2297 -9zm4332 11723l3 -1749c-372,9 -5816,-30 -6633,-34l-14 -1054c2070,-16 4027,207 5801,-1025 614,-427 1140,-968 1541,-1682 1557,-2770 583,-7128 -3485,-8041 -1274,-286 -4751,-185 -6316,-183l-10 9121 -1512 -3c2,256 -15,1503 -7,1799l1539 9 -2 1076 -1551 6 9 1779 1533 -1 6 3991 2441 16 -1 -3997 6658 -28z"/>
</svg>
