<svg xmlns="http://www.w3.org/2000/svg" xml:space="preserve" width="287px" height="500px" version="1.1" style="shape-rendering:geometricPrecision; text-rendering:geometricPrecision; image-rendering:optimizeQuality; fill-rule:evenodd; clip-rule:evenodd" viewBox="0 0 12552 21868" xmlns:xlink="http://www.w3.org/1999/xlink">
   <path d="M5730 13790c121,-526 -305,-707 -667,-860 -381,-161 -736,-311 -1109,-471 -342,-147 -806,-425 -1172,-154 -246,182 -394,675 -536,1014 -307,735 -618,1457 -932,2195 -136,320 -883,2022 -924,2203 -61,269 29,455 165,606 175,193 1333,629 1619,750 382,162 766,414 1169,144 221,-148 395,-703 530,-1018 141,-331 1803,-4173 1857,-4409z"/>
   <path d="M5362 9876c330,-41 518,-622 623,-970 129,-431 153,-877 198,-1353 92,-952 180,-1897 270,-2851 100,-1057 436,-1633 1025,-2105 629,-502 1641,-641 2249,-17 646,662 724,1521 395,2376 -262,680 -880,1225 -1395,1733 -531,526 -1059,1012 -1570,1557 -257,273 -1276,1246 -1095,1947 138,-50 365,-328 481,-444l2261 -2162c859,-929 1961,-1578 2262,-3043 109,-530 90,-1109 -62,-1598 -765,-2454 -4086,-2213 -5037,445 -266,742 -291,2287 -359,3175 -83,1100 -184,2211 -246,3310z"/>
   <path d="M3918 8726c-200,141 -373,471 -295,812 25,108 1148,1961 1276,2128 554,-363 42,-1186 -172,-1559l-774 -1347c-3,-4 -14,-6 -17,-17 -2,-11 -11,-12 -18,-17z"/>
   <path d="M4216 7489c-261,81 -446,536 -368,748l1208 2108c193,-69 185,-149 319,-289l-179 -100c18,-231 108,-602 -1,-791 -150,-262 -928,-1523 -979,-1676z"/>
   <path d="M3697 10061c-189,142 -304,498 -224,828 42,170 291,533 381,690 133,234 271,471 407,701 143,243 246,344 652,443 86,-360 98,-529 -75,-832 -97,-173 -1023,-1766 -1141,-1830z"/>
   <path d="M5876 10207c-126,452 -37,798 8,1277 32,331 54,961 130,1251 944,-464 461,-1419 354,-2564 -132,88 -166,140 -270,217 -87,-64 -146,-115 -222,-181z"/>
   <path d="M5106 12127c43,218 16,475 42,717 99,33 174,61 271,109 65,32 53,25 120,70l117 74c272,-335 148,-786 105,-1237 -40,-421 -114,-932 -120,-1342 -702,152 -156,503 -443,1046 -136,255 -192,64 -92,563z"/>
   <path d="M7033 9511c-68,34 -75,36 -144,112 -441,507 -415,183 -291,921 65,392 131,981 235,1341 214,-58 382,-191 489,-347 150,-219 78,-400 21,-668 -92,-426 -252,-945 -310,-1359z"/>
   <path d="M724 19321c-176,99 -323,328 -334,603 -8,204 173,496 254,678l595 1266c465,-536 318,-696 58,-1286 -179,-406 -422,-848 -573,-1261z"/>
   <path d="M7202 9296c-6,145 358,1721 413,1803 428,-121 618,-489 464,-995 -89,-290 -281,-1002 -409,-1230l-468 422z"/>
   <path d="M1607 20875c55,-40 15,-2 73,-66 22,-24 24,-29 42,-55 310,-463 131,-718 -61,-1137 -222,-486 -237,-739 -485,-841 -102,-41 -214,-97 -322,-121 -152,251 -68,426 27,638l726 1582z"/>
   <path d="M4386 6430c-433,553 -124,847 149,1310 129,218 586,1036 707,1149 58,-122 105,-647 58,-807 -34,-119 -776,-1554 -914,-1652z"/>
   <path d="M4589 5366c-467,344 -100,840 111,1228 100,184 542,1069 630,1150 85,-134 73,-562 91,-768 25,-296 -74,-369 -200,-585 -132,-224 -490,-882 -632,-1025z"/>
   <path d="M7829 8693c15,407 401,1177 472,1660 234,-11 410,-144 468,-308 73,-204 -451,-1688 -491,-1742l-449 390z"/>
   <path d="M8878 7738c-532,455 -476,353 -319,874 107,354 262,764 342,1109 178,-48 307,-188 382,-359 89,-203 -5,-373 -61,-560 -51,-173 -279,-969 -344,-1064z"/>
   <path d="M4866 4346c-131,60 -272,310 -274,539 -1,179 441,881 558,1071 93,150 202,379 306,501 24,-228 35,-451 53,-680 27,-335 47,-307 -105,-549 -119,-189 -420,-769 -538,-882z"/>
   <path d="M9497 7137c-270,253 -511,305 -341,878 105,353 209,699 313,1037 175,-51 291,-175 372,-333 103,-200 30,-349 -27,-540 -101,-340 -195,-716 -317,-1042z"/>
   <path d="M10079 6564c-433,385 -456,419 -326,855l269 899c28,75 23,65 57,116 165,-52 301,-205 363,-346 88,-199 19,-346 -39,-530 -63,-205 -237,-867 -324,-994z"/>
   <path d="M11035 5249c-29,27 -22,18 -51,60 -4,6 -9,14 -13,20 -4,7 -9,15 -12,22 -15,26 -33,71 -51,107 -217,442 -292,317 -157,615 94,207 278,681 402,808 278,-78 551,-394 318,-803 -129,-226 -351,-603 -436,-829z"/>
   <path d="M5122 3269c-158,69 -249,258 -282,450 -42,241 80,363 178,537 170,301 345,611 529,899 43,-224 121,-955 39,-1119 -129,-258 -333,-510 -464,-767z"/>
   <path d="M10553 6055c-70,56 -247,244 -284,313 -63,118 36,330 76,458l289 890c2,-5 8,15 13,22 284,-98 467,-496 314,-831 -102,-225 -279,-665 -408,-852z"/>
   <path d="M5942 3057c176,-581 444,-397 207,-785 -105,-171 -345,-624 -461,-746 -135,45 -246,174 -296,312 -110,305 91,476 306,853 34,58 64,106 107,178l137 188z"/>
   <path d="M10943 2390c194,407 47,369 542,454 195,34 692,138 853,126 51,-333 -45,-670 -394,-655 -265,12 -762,25 -1001,75z"/>
   <path d="M11207 4623c-117,544 -171,319 97,802 109,197 314,545 381,732 176,-59 301,-171 350,-366 66,-267 -57,-332 -187,-466 -143,-147 -495,-611 -641,-702z"/>
   <path d="M10591 1878c69,120 181,213 243,348 285,-15 571,-41 855,-55 146,-7 354,30 365,-95 10,-102 -72,-269 -126,-339 -197,-257 -285,-183 -621,-80 -202,61 -542,142 -716,221z"/>
   <path d="M11290 4056c-16,280 -85,304 83,479 174,181 645,782 796,851 443,-434 129,-631 -94,-795 -134,-99 -677,-508 -785,-535z"/>
   <path d="M11417 3922l968 680 131 -190c147,-418 -195,-494 -339,-555 -287,-120 -607,-268 -897,-365 16,276 -29,309 137,430z"/>
   <path d="M7932 112l-132 1130c448,-85 395,-111 540,-468 71,-174 261,-562 286,-723 -326,-87 -423,-59 -694,61z"/>
   <path d="M6755 1888c93,-49 1,5 83,-57l268 -199 -124 -1168c-924,56 -340,902 -227,1424z"/>
   <path d="M12155 3117c-327,-50 -641,-113 -972,-153 38,333 62,330 180,382l1085 435c111,-151 226,-584 -293,-664z"/>
   <path d="M7261 1510l384 -188c4,-375 62,-800 114,-1168 -210,-68 -610,26 -601,398 7,322 76,647 103,958z"/>
   <path d="M10145 1504c342,231 189,283 692,125l677 -208c80,-35 31,-7 79,-46 -57,-179 -131,-266 -256,-343 -196,-120 -270,-74 -438,26 -152,91 -669,351 -754,446z"/>
   <path d="M6382 2317c78,-102 151,-190 252,-273l-363 -1129c-329,76 -553,351 -340,690 90,144 365,636 451,712z"/>
   <path d="M9623 1217c362,237 375,156 713,-26 134,-72 571,-301 647,-385 -56,-121 -165,-230 -308,-281 -248,-89 -295,-25 -421,109 -124,133 -576,479 -631,583z"/>
   <path d="M8393 1100c552,-44 398,5 663,-369 94,-132 365,-481 397,-620 -131,-48 -259,-119 -444,-92 -229,34 -220,88 -294,276 -101,252 -246,542 -322,805z"/>
   <path d="M9011 1085c529,94 354,140 973,-436 97,-90 199,-148 277,-247 -66,-109 -188,-205 -375,-225 -268,-28 -279,51 -388,207l-487 701z"/>
   <path d="M317 20352c-122,78 -226,240 -279,427 -82,293 -32,344 152,467 142,94 261,179 412,282 123,84 275,192 409,261l-694 -1437z"/>
   <path d="M5273 2357c-445,515 89,865 377,1491 24,-35 10,-7 38,-72 4,-9 14,-39 17,-49 12,-35 14,-58 24,-100 22,-92 35,-130 67,-218 71,-196 5,-224 -88,-381 -88,-150 -327,-600 -435,-671z"/>
   <path d="M3476 11295c-213,111 -270,449 -250,765 351,68 592,244 910,337 -27,-62 -558,-1003 -660,-1102z"/>
   <path d="M1554 18945c132,250 276,788 437,968 148,-126 267,-409 267,-658 -177,-133 -488,-222 -704,-310z"/>
</svg>
