<svg xmlns="http://www.w3.org/2000/svg" xmlns:xlink="http://www.w3.org/1999/xlink"><defs>
  <style type="text/css">
   <![CDATA[
    .fil0 {fill:#4B5441;fill-rule:nonzero}
   ]]>
  </style>
 </defs>
 <symbol id="arrow_down" viewBox="0 0 332 364">
  <path d="M83 0l0 182 -83 0 166 182 166 -182 -83 0 0 -182 -166 0zm0 91m-42 91m42 91m166 0m41 -91m-41 -91m-83 -91"/>
</symbol>
<symbol id="arrow_menu" viewBox="0 0 9425 114">
 <g id="&#x421;&#x43B;&#x43E;&#x439;_x0020_1">
  <metadata id="CorelCorpID_0Corel-Layer"/>
  <polygon class="fil0" points="0,57 4713,0 9425,57 4713,114 "/>
 </g>
</symbol>
<symbol id="clamp" viewBox="0 0 12347 20396">
   <path d="M4834 7981c466,-154 832,152 935,490 142,464 -170,831 -498,932 -915,282 -1401,-1104 -437,-1422zm-4032 10184c191,89 504,162 709,228l4945 1539c1050,325 1871,682 3069,298 972,-312 1604,-925 2025,-1673 476,-848 468,-2070 550,-3149 53,-700 266,-2946 245,-3464 -42,-1023 -444,-1884 -1131,-2580 -768,-779 -1389,-914 -2439,-1258 -939,-307 -1866,-612 -2803,-924 -520,-173 -974,-330 -1546,-91 -989,411 -1361,1496 -875,2424 304,582 1399,1121 2081,1616 747,542 561,422 1417,422 641,0 1293,-173 1298,567l-1 3697c0,731 41,1079 -403,1452 -389,328 -1010,239 -1598,239l-5552 0 9 657z"/>
   <path d="M6996 2981c-541,156 -865,645 -1143,1047l-2271 3158c-154,205 -3506,6102 -3546,6240 740,180 1438,202 2193,-7 676,-188 1293,-541 1793,-1018 4,-4 12,-11 17,-17 -56,-515 6,-632 329,-862 243,-173 499,-378 741,-543 -178,-242 -1204,-673 -1573,-1213 -1004,-1466 350,-3323 1996,-2876 352,96 713,225 1062,345 259,89 831,304 1072,337l613 -1148c212,-390 406,-786 618,-1171 568,-1029 -73,-2131 -864,-2304 0,1055 582,785 608,1629 19,630 -482,1143 -1092,1161 -944,28 -1583,-1095 -840,-1911 230,-252 287,-398 287,-847z"/>
   <path d="M0 16921c0,41 0,374 0,434l7225 0c588,0 972,-399 972,-980l0 -4284c0,-299 -169,-452 -489,-374 0,1318 0,2636 0,3954 0,743 128,1205 -805,1194 -57,0 -183,-5 -232,7l-6671 49z"/>
   <path d="M7381 4044c334,-90 632,139 701,411 92,363 -138,648 -404,722 -758,210 -1082,-920 -297,-1133zm23 -4022c-294,97 -262,352 -261,684 0,556 41,2479 -51,2771 -148,470 -679,632 -538,1333 239,1188 2046,948 1937,-290 -56,-639 -550,-591 -601,-1289 -57,-791 22,-1957 -3,-2818 -8,-265 -198,-485 -483,-391z"/>
   <path d="M4870 8115c-275,90 -510,386 -388,762 88,270 392,503 761,381 742,-247 382,-1391 -373,-1143z"/>
   <path d="M7404 4188c-587,173 -318,1023 247,847 483,-151 332,-1017 -247,-847z"/>
</symbol>
<symbol id="crane" viewBox="0 0 40574 34895">
     <path d="M21716 26868l-8027 0 0 8027 8027 0 0 -8027zm-618 618l-6791 0 0 6791 6791 0 0 -6791z"/>
     <path d="M20164 28340l-4923 0 0 5083 4923 0 0 -5083zm-887 1020l-595 0 0 3078 595 0 0 -3078zm-910 5l-595 0 0 3078 595 0 0 -3078zm-907 -3l-595 0 -2 3081 595 0 2 -3081zm-912 -2l-595 0 0 3078 595 0 0 -3078z"/>
     <path d="M12660 26868l-8027 0 0 8027 8027 0 0 -8027zm-618 618l-6792 0 0 6791 6792 0 0 -6791z"/>
     <path d="M11108 28340l-4923 0 0 5083 4923 0 0 -5083zm-888 1020l-594 0 0 3078 594 0 0 -3078zm-909 5l-595 0 0 3078 595 0 0 -3078zm-907 -3l-595 0 -2 3081 594 0 3 -3081zm-912 -2l-595 0 0 3078 595 0 0 -3078z"/>
     <path d="M17188 18119l-8027 0 0 8027 8027 0 0 -8027zm-618 618l-6791 0 0 6792 6791 0 0 -6792z"/>
     <path d="M15636 19591l-4923 0 0 5083 4923 0 0 -5083zm-887 1020l-595 0 0 3078 595 0 0 -3078zm-910 5l-595 0 0 3078 595 0 0 -3078zm-907 -3l-595 0 -2 3081 595 0 2 -3081zm-912 -2l-595 0 0 3078 595 0 0 -3078z"/>
    <path d="M17010 8683c2,-381 0,-761 0,-1142 1,-1104 140,-840 -2461,-840 -2575,0 -2456,-261 -2456,840l1 1142 -471 -2c0,-518 -9,-1043 -1,-1560 8,-491 221,-792 657,-870 -33,-371 -13,-800 -13,-1177 0,-1397 36,-1175 2283,-1175 2316,0 2291,-210 2291,1217 0,364 18,774 -10,1133 468,85 649,405 648,915 0,506 0,1013 -1,1519l-467 0z"/>
    <path d="M10057 9571c-2680,0 -2516,209 -2516,-1204 1,-704 -131,-1206 643,-1208 610,-2 1221,1 1831,1 32,-43 42,34 42,-144l1164 -4 -7 2737c-1280,1 -1154,72 -1157,-178z"/>
    <path d="M17154 5400c40,-328 52,-1229 -90,-1457 -252,-403 -725,-287 -1275,-299 281,-562 1272,-889 1934,-142 595,672 167,1726 -569,1898z"/>
    <path d="M12973 12890c101,-78 223,-52 376,-52 408,-1 392,-104 360,944 -37,31 -97,161 -113,175 -834,309 -74,1105 295,231 366,318 -99,1013 -754,786 -526,-183 -497,-851 -89,-1099 -107,-110 -76,15 -101,-173l26 -812z"/>
    <path d="M16187 9453c-5,-18 -26,-1920 35,-2103 121,-185 404,-121 455,59 45,162 15,1208 15,1458 0,175 29,580 -56,690 -123,159 -383,107 -449,-104z"/>
    <path d="M13581 9007c-32,310 -502,377 -517,-72 -11,-313 -21,-827 1,-1131 27,-366 506,-389 520,68 8,292 24,862 -4,1135z"/>
    <path d="M12798 9044c-43,224 -511,412 -511,-181 0,-270 -30,-868 6,-1099 42,-270 513,-423 512,180 0,238 29,912 -7,1100z"/>
    <path d="M13573 12348l-506 -8 0 -2834c226,98 300,102 516,-1l-10 2843z"/>
    <path d="M15407 9453c-5,-18 -26,-1920 35,-2103 121,-185 404,-121 455,59 46,162 15,1208 15,1458 0,175 30,580 -56,690 -123,159 -383,107 -449,-104z"/>
    <path d="M14628 9453c-5,-18 -26,-1920 35,-2103 121,-185 404,-121 455,59 46,162 15,1208 15,1458 0,175 30,580 -55,690 -124,159 -383,107 -450,-104z"/>
    <path d="M13850 9453c-6,-18 -26,-1920 34,-2103 122,-185 404,-121 455,59 46,162 15,1208 15,1458 0,175 30,580 -55,690 -124,160 -383,107 -449,-104z"/>
    <path d="M11946 5400c-41,-328 -53,-1229 89,-1457 252,-403 725,-287 1275,-299 -281,-562 -1272,-889 -1934,-142 -594,672 -167,1726 570,1898z"/>
    <polygon points="37846,24856 36096,24856 36096,26401 37846,26401 "/>
    <polygon points="40126,26232 38949,26232 38949,25025 40126,25025 "/>
    <polygon points="39496,26337 38955,26337 38955,26694 39496,26694 "/>
    <polygon points="38204,25249 37957,25249 37957,26031 38204,26031 "/>
    <polygon points="38478,24856 38323,24856 38323,26401 38478,26401 "/>
    <polygon points="39218,33880 28398,33880 28398,34895 39218,34895 "/>
    <polygon points="37565,6461 36977,6461 36977,24613 37565,24613 "/>
    <polygon points="31249,5908 37857,5908 37857,6233 31249,6233 "/>
    <polygon points="36706,7364 30910,7364 30910,8059 36706,8059 "/>
    <polygon points="34963,0 32653,0 32653,5683 34963,5683 "/>
    <path d="M15458 3449c362,-722 1636,-1142 2487,-182 160,181 263,384 316,594l14083 0 -6 -3861 -32338 2429 0 1432 10810 0c53,-210 155,-413 316,-594 850,-960 2124,-540 2486,182l1846 0z"/>
    <polygon points="34993,7187 34322,6408 34302,6408 34302,7187 "/>
    <polygon points="34148,6408 33468,6408 33468,7187 34148,7187 "/>
    <polygon points="32622,7187 33294,6408 33314,6408 33314,7187 "/>
    <polygon points="35252,6414 34529,6414 35196,7187 36443,7187 "/>
    <polygon points="32364,6408 33087,6408 32420,7181 31173,7181 "/>
    <polygon points="36706,8267 36024,9106 36024,8267 "/>
    <polygon points="30910,8267 31592,9106 31592,8267 "/>
    <polygon points="34801,8267 34448,9233 34448,8267 "/>
    <polygon points="32805,8274 33159,9240 33159,8274 "/>
    <path d="M29559 33605l2351 -6729c112,153 291,243 481,243 190,0 430,-90 543,-243l-1035 6729 -2340 0z"/>
    <path d="M38051 33605l-2351 -6729c-113,153 -291,243 -481,243 -190,0 -430,-90 -543,-243l1035 6729 2340 0z"/>
    <path d="M34489 26876c-396,324 -966,324 -1362,0l-973 6729 3308 0 -973 -6729z"/>
    <path d="M35856 8275l-911 0 -502 1426 -150 0 0 -1426 -978 0 0 1426 -149 1 -521 -1427 -885 0 0 18613 156 -261c130,176 335,280 554,280 219,0 424,-104 554,-280 456,373 1112,373 1568,0 130,176 335,280 554,280 219,0 424,-104 554,-280l156 261 0 -18613z"/>
    <polygon points="40257,25025 40574,25135 40574,26011 40257,26232 "/>
    <polygon points="38834,25249 38586,25249 38586,26031 38834,26031 "/>
</symbol>
<symbol id="hoist" viewBox="0 0 30649 34984">
   <path d="M27741 16438c5,-1113 1,-2227 1,-3341 1,-3234 409,-2459 -7205,-2459 -7538,0 -7189,-765 -7188,2459l1 3343 -1378 -5c0,-1517 -26,-3054 -2,-4567 22,-1438 647,-2320 1922,-2548 -96,-1085 -39,-2341 -39,-3445 0,-4088 106,-3439 6684,-3439 6781,0 6706,-617 6706,3561 0,1067 52,2266 -30,3317 1371,250 1900,1185 1899,2679 -1,1482 0,2964 -3,4447l-1368 -2z"/>
   <path d="M7388 19040c-7844,0 -7364,609 -7363,-3525 0,-2061 -385,-3531 1881,-3537 1786,-6 3573,3 5359,3 93,-127 123,98 124,-422l3408 -11 -23 8013c-3745,1 -3378,208 -3386,-521z"/>
   <path d="M28162 6829c118,-961 154,-3597 -263,-4265 -736,-1179 -2121,-840 -3732,-876 824,-1644 3724,-2601 5661,-414 1741,1965 490,5050 -1666,5555z"/>
   <path d="M15925 28755c295,-231 653,-152 1099,-153 1196,-4 1148,-303 1055,2764 -108,90 -284,469 -330,511 -2442,905 -219,3235 863,675 1071,932 -289,2966 -2207,2301 -1542,-535 -1456,-2490 -261,-3216 -315,-322 -223,43 -295,-505l76 -2377z"/>
   <path d="M25332 18692c-16,-52 -76,-5619 102,-6155 355,-542 1182,-353 1331,174 134,473 44,3535 44,4267 0,511 87,1698 -162,2020 -361,466 -1121,313 -1315,-306z"/>
   <path d="M17704 17388c-94,907 -1470,1104 -1515,-212 -31,-916 -61,-2420 4,-3308 79,-1073 1481,-1141 1521,198 25,855 73,2522 -10,3322z"/>
   <path d="M15412 17496c-127,656 -1496,1207 -1496,-531 0,-789 -89,-2539 17,-3217 123,-788 1501,-1236 1499,529 -1,697 86,2667 -20,3219z"/>
   <path d="M17680 27166l-1481 -22 1 -8295c659,287 878,299 1510,-5l-30 8322z"/>
   <path d="M23050 18692c-17,-52 -77,-5619 101,-6155 355,-542 1182,-353 1332,174 134,473 43,3535 43,4267 0,511 88,1698 -162,2020 -361,466 -1121,313 -1314,-306z"/>
   <path d="M20770 18692c-16,-52 -76,-5619 102,-6155 355,-542 1182,-353 1331,174 134,473 44,3535 44,4267 0,511 87,1698 -162,2020 -362,466 -1121,313 -1315,-306z"/>
   <path d="M18490 18692c-16,-52 -76,-5619 102,-6155 355,-542 1182,-353 1331,174 134,473 44,3535 44,4267 0,511 88,1698 -162,2020 -361,467 -1121,313 -1315,-306z"/>
   <path d="M12917 6829c-118,-961 -154,-3597 263,-4265 736,-1179 2121,-840 3732,-876 -824,-1644 -3725,-2601 -5662,-414 -1740,1965 -490,5050 1667,5555z"/>
</symbol>
<symbol id="hook" viewBox="0 0 10789 15965">
   <path d="M1098 9057c144,-31 849,-29 973,22 307,124 255,395 173,726 -418,1691 484,3412 2027,4078 1163,501 2379,321 3328,-283 467,-297 548,-462 832,-753 362,-372 891,-107 906,321 17,499 -1115,1373 -1541,1616 -1567,893 -3477,852 -4934,-67 -1671,-1054 -2588,-3029 -2174,-5023 68,-328 89,-567 410,-637zm6245 -7646c343,-112 450,423 155,515 -326,102 -546,-386 -155,-515zm-2438 -207c31,-578 16,-505 -330,-852 -162,-162 -295,-349 -461,-352 -357,-7 -149,323 -323,492 -177,173 -487,-42 -487,322l0 1699c0,501 575,-23 575,597 0,522 30,959 -184,1443 -379,857 -1926,2065 -2612,2967 -2842,3741 293,9082 4959,8383 1715,-257 3098,-1295 3888,-2797 574,-1091 626,-2456 773,-3680 29,-243 143,-796 50,-992 -122,-255 -493,-357 -717,-111 45,216 202,576 283,798 120,328 31,613 -291,662 -277,42 -812,-85 -984,95 -124,130 -308,469 -419,638 -283,434 -560,868 -831,1304 -322,517 -524,778 -1055,1081 -472,269 -1146,381 -1750,243 -1442,-329 -2297,-1833 -1794,-3282 133,-383 259,-477 373,-689 -65,-120 -289,-282 -399,-388 -150,-144 -282,-277 -245,-503 234,-488 3515,-3472 3595,-3983 161,-602 590,-464 671,-846 51,-239 -51,-476 127,-629 182,-157 466,68 466,-288l0 -1722c0,-380 -286,-141 -483,-316 -206,-183 61,-496 -316,-496 -189,0 -294,163 -472,341 -74,74 -131,132 -207,206 -74,73 -130,109 -130,265l3 1286c0,564 171,1614 -641,1632 -318,-3 -564,-236 -613,-513 -37,-211 -19,-1664 -19,-2015z"/>
   <path d="M1116 9169c-267,60 -296,404 -342,682 -154,929 -41,1802 315,2644 405,953 1129,1716 1914,2174 909,530 2101,815 3328,554 1218,-260 2306,-1027 2815,-1799 299,-452 -309,-853 -628,-513 -132,141 -270,348 -494,516 -196,147 -370,294 -616,419 -2895,1470 -5845,-990 -5319,-3873 50,-273 232,-633 -26,-772 -111,-59 -803,-64 -947,-32z"/>
   <path d="M3654 9069c145,-95 332,-361 508,-514 176,-153 326,-371 499,-535l1499 -1554c167,-181 342,-346 508,-526 163,-177 464,-366 190,-638 -426,-422 -238,-381 -379,-648l-3364 3497c-103,110 -113,268 -20,387 99,127 439,446 559,531z"/>
   <path d="M6838 4304c0,-136 32,-118 248,-241 350,-200 270,-206 637,8 121,70 234,86 234,233 0,611 48,527 -239,688 -381,213 -259,214 -641,0 -288,-161 -239,-81 -239,-688zm3134 4965c-53,-228 -205,-586 -292,-818 -102,-273 -192,-534 -295,-807l-815 -2239c-64,-191 -18,-112 -138,-137 -119,-26 -96,-92 -195,-357 -75,-200 -89,-230 -113,-462 -66,-626 -862,-891 -1301,-375 -173,204 -207,579 -52,833 193,313 321,250 679,424 571,278 674,630 925,1302l889 2440c172,477 348,281 708,196z"/>
   <polygon points="5022,2065 6057,2065 6056,1265 5020,1265 "/>
   <path d="M7334 4253c352,-99 494,434 167,548 -372,129 -583,-432 -167,-548zm-382 511c82,68 362,267 445,267 55,0 400,-204 445,-267l0 -460c-40,-80 -134,-110 -218,-157 -266,-150 -184,-154 -468,8 -259,147 -204,53 -204,609z"/>
   <path d="M10081 9340c-59,34 -257,104 -342,130 -225,71 -248,-5 -413,-45l-164 251c475,-16 1009,94 1093,-218 41,-151 -76,-382 -125,-516 -42,-115 -128,-396 -184,-480 -130,137 -92,141 13,422 51,137 149,327 122,456z"/>
   <path d="M7352 4365c-232,66 -127,402 107,328 188,-60 130,-395 -107,-328z"/>
</symbol>
<symbol id="logo" viewBox="0 0 5183 8301">
    <path fill="#00A0E3" fill-rule="nonzero" d="M4225 2495c-2,-68 -158,-1934 -149,-1928 243,168 439,387 586,656 192,351 296,750 310,1195l-747 77zm-3099 3852c22,184 193,1407 185,1403 -376,-200 -672,-496 -888,-891 -220,-401 -336,-856 -346,-1363l789 -83c37,379 123,690 260,934z"/>
    <path fill="#FEFEFE" fill-rule="nonzero" d="M4119 505l-86 124 0 0 118 -58 0 12 2 24 2 33 3 42 3 49 5 56 4 63 6 68 5 74 7 77 6 81 7 84 7 87 7 87 7 89 7 89 7 88 7 88 7 85 7 84 6 80 6 76 6 71 5 67 5 61 4 54 4 47 3 39 2 31 2 22 0 15 -151 3 0 -9 -2 -20 -2 -31 -3 -39 -3 -46 -5 -55 -4 -60 -6 -67 -5 -71 -7 -76 -6 -80 -7 -83 -7 -86 -7 -87 -7 -89 -7 -89 -7 -89 -7 -87 -7 -87 -7 -84 -6 -81 -6 -78 -6 -73 -5 -68 -5 -63 -4 -57 -4 -50 -3 -42 -2 -34 -1 -26 -1 -18 119 -67 0 0zm-86 124l0 0 1 0 -1 0zm695 558l-133 72 0 0 -13 -24 -14 -24 -14 -24 -14 -23 -14 -23 -15 -22 -15 -23 -15 -22 -16 -22 -16 -21 -16 -22 -16 -20 -17 -21 -17 -20 -17 -21 -17 -19 -18 -20 -18 -19 -18 -19 -19 -19 -19 -18 -19 -18 -19 -18 -20 -18 -19 -17 -21 -17 -20 -17 -21 -16 -21 -16 -21 -16 -21 -16 -22 -15 86 -124 23 16 24 17 23 17 22 18 23 18 22 18 22 18 21 19 22 19 21 19 20 20 21 20 20 20 20 21 19 21 19 21 19 21 19 22 18 22 18 23 18 22 17 23 18 24 16 23 17 24 16 24 16 25 16 25 15 25 15 25 15 26 14 26 0 0zm252 1307l-15 -151 -68 78 -2 -41 -2 -40 -3 -40 -3 -40 -3 -39 -4 -40 -5 -39 -5 -38 -6 -39 -6 -38 -7 -38 -7 -37 -8 -37 -8 -37 -8 -37 -10 -37 -9 -36 -11 -36 -10 -35 -11 -36 -12 -35 -12 -34 -13 -35 -13 -34 -14 -34 -14 -34 -15 -33 -15 -33 -16 -33 -16 -33 -16 -32 -18 -32 133 -72 18 34 18 34 17 35 17 35 16 35 16 36 15 35 14 36 14 37 14 37 13 37 12 37 12 37 12 38 10 38 11 38 9 39 9 39 9 39 8 39 8 40 7 40 6 40 6 41 6 40 5 41 4 42 4 41 3 42 3 42 2 42 2 43 -68 78zm68 -78l2 70 -70 8 68 -78zm-831 4l748 -77 15 151 -748 77 -83 -74 68 -77zm15 151l-81 8 -2 -82 83 74zm-2956 5246l71 -134 0 0 -111 67 -1 -6 -1 -15 -3 -22 -3 -27 -4 -33 -5 -37 -5 -42 -6 -46 -7 -49 -7 -52 -7 -55 -8 -57 -8 -59 -8 -60 -8 -61 -8 -62 -9 -62 -8 -61 -8 -61 -8 -60 -8 -58 -8 -57 -7 -54 -7 -51 -7 -48 -6 -44 -5 -41 -5 -36 -4 -31 -3 -26 -3 -21 150 -18 3 20 3 25 4 31 5 36 5 41 6 44 7 48 6 51 8 54 7 57 8 58 8 60 9 60 8 62 8 62 9 62 8 61 8 60 8 59 8 57 7 55 7 52 6 50 6 45 6 42 5 38 4 33 3 28 3 23 2 18 1 13 -111 73 0 1zm-919 -922l132 -72 0 0 20 36 20 35 21 34 21 34 22 33 22 33 23 32 23 32 23 31 24 30 24 30 25 30 25 28 26 29 26 27 26 27 27 27 28 26 28 25 28 25 29 25 29 23 30 24 30 22 30 22 32 22 31 21 32 20 32 20 33 20 34 19 34 18 -71 134 -37 -20 -35 -20 -36 -21 -34 -22 -35 -22 -34 -22 -33 -23 -33 -24 -32 -25 -32 -25 -32 -25 -31 -26 -30 -27 -30 -27 -30 -28 -29 -29 -28 -29 -28 -30 -28 -30 -27 -31 -26 -31 -26 -32 -26 -33 -25 -33 -24 -34 -24 -34 -24 -35 -23 -36 -23 -36 -22 -36 -21 -38 -21 -38 0 0zm-288 -1474l16 150 67 -77 2 47 2 46 2 45 3 46 4 45 4 45 5 44 5 44 6 44 7 44 7 43 8 43 9 43 9 42 9 42 11 42 11 41 11 41 12 41 13 40 13 40 14 40 14 40 15 39 16 39 16 38 16 38 18 38 18 38 18 37 19 37 20 37 -132 72 -21 -38 -21 -39 -19 -40 -19 -40 -18 -40 -18 -40 -17 -41 -17 -41 -16 -41 -15 -42 -14 -42 -14 -43 -14 -42 -12 -43 -12 -44 -12 -43 -11 -44 -10 -44 -9 -45 -9 -45 -8 -45 -8 -45 -7 -46 -6 -46 -6 -46 -5 -47 -5 -47 -4 -47 -3 -47 -2 -48 -2 -48 -2 -49 68 -76zm-68 76l-1 -69 69 -7 -68 76zm873 -9l-789 83 -16 -150 789 -83 83 68 -67 82zm-16 -150l76 -8 7 76 -83 -68zm343 1000l-150 18 9 28 -13 -24 -13 -25 -12 -25 -13 -25 -12 -26 -12 -26 -11 -26 -11 -27 -11 -27 -10 -28 -10 -28 -10 -28 -10 -29 -9 -29 -9 -30 -8 -30 -8 -30 -8 -31 -8 -31 -7 -31 -7 -32 -7 -32 -6 -33 -7 -33 -5 -33 -6 -34 -5 -34 -5 -35 -4 -35 -5 -35 -4 -36 -3 -36 150 -14 4 34 3 34 4 34 5 34 5 33 4 32 6 33 5 31 6 32 6 31 6 30 7 30 7 30 7 29 8 29 7 29 8 28 9 27 8 27 9 27 9 27 10 26 9 25 10 25 10 25 11 24 11 24 11 24 11 23 11 23 12 22 12 22 9 28zm-9 -28l8 13 1 15 -9 -28z"/>
   <path fill="#FEFEFE" d="M4121 904c34,-290 63,-606 71,-904l-126 0c-5,154 -15,300 -29,443 -29,-144 -62,-291 -100,-443l-161 0c353,1312 363,2183 294,2928 -170,-825 -465,-1771 -939,-2928l-206 0c614,1450 935,2532 1089,3396 147,832 140,1460 88,2018 -122,-596 -311,-1256 -585,-2012 -193,-535 -429,-1116 -715,-1759 -274,-616 -509,-1157 -709,-1643l-203 0c232,581 512,1224 841,1965 233,522 429,999 595,1439l0 0c852,2249 902,3488 809,4496 -209,-1017 -609,-2219 -1300,-3771 -112,-253 -216,-490 -316,-716l0 0c-647,-1486 -1033,-2504 -1217,-3413l-157 0c-51,446 -77,858 -71,1254 5,406 41,795 109,1189 -41,346 -67,672 -75,986 -3,105 -3,208 -2,311 5,406 42,795 109,1189 -55,462 -82,888 -77,1297 6,405 42,795 110,1189 -37,310 -62,603 -72,886l128 0c6,-146 16,-295 31,-449 33,148 72,297 114,449l168 0c-331,-1076 -411,-1907 -315,-2935 195,856 536,1768 1036,2935l210 0c-996,-2292 -1356,-3460 -1313,-4874 6,-178 17,-359 35,-547 41,179 88,360 142,545 279,969 734,2051 1384,3512 219,493 407,945 567,1364l193 0c-189,-514 -416,-1072 -689,-1686 -603,-1354 -1019,-2350 -1286,-3192l0 0c-355,-1122 -443,-1971 -343,-3029 199,877 552,1812 1071,3021 140,325 291,668 455,1036 746,1677 1126,2896 1302,3850l162 0c88,-771 100,-1545 -48,-2464 8,-982 143,-1361 -27,-2443 100,-845 100,-1648 -32,-2490z"/>
    <path fill="#00A0E3" fill-rule="nonzero" d="M4241 6285c41,-125 62,-256 62,-393 0,-239 -58,-445 -174,-624 -115,-178 -305,-326 -568,-447 -171,-79 -545,-203 -1126,-370 -580,-168 -988,-325 -1220,-474 -302,-189 -527,-425 -676,-706 -147,-281 -221,-595 -221,-945 0,-381 92,-739 271,-1072 126,-233 291,-427 499,-581l45 1435c-6,49 -9,100 -9,151 0,274 82,498 245,673 162,176 582,356 1262,540 680,186 1146,346 1399,484 368,205 641,463 816,774 175,312 262,672 262,1079 0,404 -97,783 -289,1141 -135,252 -312,465 -534,638l-44 -1303z"/>
    <path fill="#FEFEFE" fill-rule="nonzero" d="M4227 5892l151 0 0 0 0 13 0 14 0 13 -1 14 0 13 -1 14 -1 13 -1 13 -1 14 -1 13 -2 13 -1 13 -2 13 -1 14 -2 13 -2 13 -2 13 -3 13 -2 13 -2 13 -3 12 -3 13 -3 13 -3 13 -3 12 -3 13 -3 13 -4 12 -4 13 -3 12 -4 13 -4 12 -144 -47 4 -11 3 -11 3 -11 4 -11 3 -11 3 -11 3 -11 2 -12 3 -11 3 -11 2 -12 2 -11 3 -11 2 -12 2 -11 2 -12 1 -11 2 -12 1 -12 2 -11 1 -12 1 -12 1 -11 1 -12 1 -12 1 -12 1 -12 0 -12 1 -12 0 -12 0 -12 0 -12 0 0zm-162 -583l128 -82 -1 0 12 18 11 18 11 19 10 18 10 19 10 19 9 19 9 19 9 20 8 19 8 20 7 20 7 21 7 20 6 20 6 21 6 21 5 21 5 21 4 22 5 21 3 22 4 22 3 22 2 22 3 23 2 22 1 23 2 23 0 23 1 23 0 24 -151 0 0 -21 -1 -21 0 -21 -1 -21 -2 -20 -2 -20 -2 -20 -2 -20 -3 -19 -3 -19 -3 -19 -4 -19 -4 -19 -4 -19 -4 -18 -5 -18 -6 -18 -5 -18 -6 -18 -6 -17 -6 -18 -7 -17 -7 -17 -8 -17 -7 -16 -8 -17 -9 -16 -8 -16 -9 -16 -10 -16 -9 -16 -10 -15 -1 -1zm1 1l-1 -1 1 1 0 0zm-537 -420l64 -137 -1 0 25 11 25 12 25 12 24 13 24 12 23 13 23 13 22 13 22 13 22 14 21 13 21 14 20 14 20 14 19 15 19 15 19 14 18 16 18 15 17 15 17 16 17 16 16 16 15 17 15 16 15 17 14 17 14 17 13 18 13 17 13 18 12 18 -128 82 -10 -15 -10 -15 -11 -15 -11 -15 -12 -14 -12 -15 -12 -14 -13 -14 -14 -15 -14 -14 -14 -13 -15 -14 -15 -14 -15 -13 -17 -13 -16 -14 -17 -13 -17 -13 -18 -12 -18 -13 -19 -12 -19 -13 -20 -12 -20 -12 -20 -12 -21 -12 -22 -12 -22 -11 -22 -12 -23 -11 -23 -11 -23 -11 -1 0zm1 0l-1 0 0 0 1 0zm-1116 -367l42 -145 0 0 54 16 53 15 51 15 51 15 49 15 48 14 47 14 45 14 44 13 44 14 42 13 40 13 40 12 38 13 38 12 36 11 34 12 34 11 32 11 32 11 30 11 29 10 27 10 27 10 25 9 25 10 23 9 22 9 21 8 19 9 19 8 18 8 -64 137 -16 -7 -17 -8 -18 -7 -19 -8 -21 -9 -22 -9 -23 -8 -25 -10 -25 -9 -27 -10 -29 -10 -29 -10 -31 -11 -31 -11 -34 -11 -34 -11 -35 -12 -37 -12 -38 -12 -39 -12 -41 -13 -41 -13 -43 -13 -44 -14 -45 -13 -47 -14 -47 -15 -49 -14 -50 -15 -52 -15 -52 -15 -54 -16 0 0zm-1239 -482l80 -128 0 1 22 13 22 13 23 13 24 14 26 14 26 13 28 14 29 14 29 14 31 14 32 14 33 14 34 15 35 14 36 15 37 14 38 15 39 14 40 15 42 15 42 15 43 15 45 15 45 15 46 15 48 15 48 16 50 15 50 15 52 16 52 15 54 16 -42 145 -54 -16 -53 -15 -53 -16 -51 -16 -50 -15 -49 -16 -48 -15 -47 -16 -46 -15 -46 -15 -44 -15 -43 -16 -42 -15 -41 -15 -40 -15 -40 -15 -38 -15 -37 -15 -36 -15 -36 -15 -34 -14 -33 -15 -32 -15 -32 -15 -30 -14 -29 -15 -29 -15 -27 -14 -26 -15 -26 -15 -24 -14 -24 -15 1 0zm80 -128l0 0 0 1 0 -1zm-783 -607l134 -70 0 -1 14 26 14 24 14 25 15 24 15 24 16 24 16 24 16 23 17 23 18 23 18 22 18 23 19 22 19 21 19 22 20 21 21 21 21 21 21 21 22 20 22 20 23 20 23 20 23 19 24 19 25 19 25 18 25 19 26 18 26 17 27 18 27 17 -80 128 -29 -18 -29 -19 -28 -19 -28 -19 -27 -20 -26 -20 -27 -20 -26 -21 -25 -20 -25 -22 -24 -21 -24 -22 -24 -22 -23 -22 -23 -22 -22 -23 -22 -23 -21 -24 -21 -24 -20 -24 -20 -24 -20 -25 -19 -24 -18 -26 -18 -25 -18 -26 -17 -26 -17 -26 -16 -27 -15 -26 -16 -27 -15 -28 0 0zm0 0l0 0 0 -1 0 1zm-229 -980l151 0 0 0 0 32 1 31 1 31 1 31 2 31 3 31 2 30 3 30 4 30 4 30 4 30 5 29 5 29 6 29 6 29 6 28 7 28 7 28 8 28 8 28 9 27 8 28 10 27 10 27 10 26 10 27 11 26 12 26 11 26 13 26 12 25 13 26 -134 70 -14 -28 -13 -27 -14 -28 -12 -28 -13 -29 -12 -28 -11 -29 -11 -29 -11 -29 -10 -29 -9 -30 -10 -30 -8 -30 -9 -30 -7 -30 -8 -31 -7 -30 -6 -31 -6 -31 -6 -32 -5 -31 -5 -32 -4 -32 -4 -32 -3 -32 -3 -33 -2 -33 -2 -32 -2 -34 -1 -33 -1 -33 0 -34 0 0zm280 -1108l133 72 0 0 -16 30 -16 30 -15 31 -14 31 -14 31 -14 31 -13 31 -12 31 -12 31 -12 32 -11 31 -10 32 -10 32 -10 32 -9 32 -8 32 -8 33 -7 32 -7 33 -7 33 -6 33 -5 33 -5 33 -4 34 -4 33 -4 34 -2 34 -3 34 -2 34 -1 34 -1 34 0 35 -151 0 0 -37 1 -37 1 -36 2 -37 3 -36 3 -36 4 -36 4 -36 4 -36 6 -35 5 -36 7 -35 7 -35 7 -35 8 -35 9 -35 9 -34 9 -35 10 -34 11 -34 11 -34 12 -34 12 -34 13 -33 14 -34 13 -33 15 -33 15 -33 15 -32 16 -33 17 -32 17 -33 0 0zm641 -548l-151 5 120 58 -18 14 -19 15 -18 14 -17 15 -18 14 -17 15 -17 16 -17 15 -17 16 -16 16 -17 16 -15 16 -16 17 -16 17 -15 17 -15 17 -15 17 -14 18 -15 18 -14 18 -13 19 -14 18 -14 19 -13 19 -13 19 -12 20 -13 20 -12 20 -12 20 -12 20 -12 21 -11 21 -133 -72 12 -22 13 -23 12 -22 14 -22 13 -21 14 -22 13 -21 14 -21 15 -21 14 -20 15 -21 15 -20 16 -20 15 -19 16 -19 16 -19 17 -19 17 -19 16 -18 18 -18 17 -18 18 -18 18 -17 18 -17 18 -17 19 -17 19 -16 19 -17 19 -16 20 -15 20 -16 20 -15 121 58zm-121 -58l116 -86 5 144 -121 -58zm14 1499l-44 -1436 151 -5 44 1436 0 12 -151 -7zm151 -5l1 6 -1 6 0 -12zm-9 153l-151 0 0 0 0 -5 0 -5 0 -5 0 -5 0 -6 0 -5 0 -5 1 -5 0 -5 0 -5 0 -5 0 -5 1 -5 0 -5 0 -5 1 -5 0 -5 0 -5 1 -5 0 -5 0 -5 1 -5 0 -5 1 -5 0 -5 1 -5 0 -5 1 -5 0 -4 1 -5 0 -5 1 -5 150 19 -1 4 0 5 -1 4 0 4 -1 5 0 4 -1 4 0 4 0 5 -1 4 0 5 0 4 -1 4 0 5 0 4 -1 4 0 5 0 4 0 5 -1 4 0 5 0 4 0 4 0 5 0 4 -1 5 0 4 0 5 0 4 0 5 0 4 0 5 0 0zm226 622l-111 102 0 0 -16 -18 -16 -18 -15 -18 -15 -19 -14 -19 -14 -20 -14 -20 -12 -20 -13 -21 -11 -20 -12 -21 -10 -22 -10 -22 -10 -22 -9 -22 -9 -23 -8 -23 -7 -23 -7 -23 -7 -24 -6 -24 -5 -24 -5 -25 -5 -25 -3 -25 -4 -25 -3 -26 -2 -26 -2 -26 -1 -26 -1 -27 0 -27 151 0 0 24 1 24 1 23 2 23 2 23 2 23 3 22 4 22 3 21 5 21 4 21 5 21 6 20 6 20 6 20 7 19 7 20 8 18 8 19 9 18 9 18 9 18 10 18 10 17 11 17 11 16 12 17 12 16 12 16 13 16 14 15 14 15 0 1zm0 -1l0 1 0 0 0 -1zm1226 519l-40 146 0 0 -63 -17 -62 -18 -61 -17 -59 -17 -57 -17 -56 -18 -54 -17 -53 -17 -52 -17 -50 -18 -48 -17 -47 -17 -45 -17 -44 -18 -43 -17 -41 -17 -40 -18 -38 -17 -36 -17 -36 -18 -34 -17 -32 -18 -31 -17 -29 -18 -29 -17 -26 -18 -26 -18 -23 -18 -23 -19 -21 -18 -20 -19 -18 -19 111 -102 14 14 15 14 16 15 19 15 20 15 21 15 24 16 25 15 26 16 28 16 30 16 31 16 33 17 35 16 36 16 38 17 39 16 41 17 42 17 44 16 45 17 47 17 49 17 50 16 52 17 53 17 55 17 56 17 58 17 60 17 61 17 62 17 1 0zm-1 0l1 0 -2 0 1 0zm1417 491l-73 132 0 0 -23 -12 -25 -13 -25 -12 -28 -13 -28 -13 -30 -14 -31 -13 -32 -14 -34 -14 -35 -14 -36 -14 -38 -14 -39 -14 -40 -15 -41 -15 -43 -15 -44 -15 -45 -15 -47 -15 -48 -16 -49 -15 -50 -16 -51 -16 -53 -16 -54 -16 -56 -17 -56 -16 -58 -17 -59 -17 -61 -17 -61 -17 -63 -17 40 -146 63 18 62 17 61 17 59 17 59 17 57 16 56 17 54 16 54 17 52 16 51 16 50 16 48 15 47 16 46 15 45 16 44 15 42 15 41 15 40 15 39 14 37 15 36 14 35 15 34 14 33 14 31 14 30 14 29 14 28 13 27 14 25 14 1 0zm-1 0l1 0 0 0 -1 0zm846 803l-132 74 0 0 -16 -28 -17 -27 -17 -28 -17 -26 -18 -27 -19 -26 -19 -26 -20 -26 -21 -25 -20 -25 -22 -25 -22 -25 -23 -24 -23 -24 -23 -24 -25 -23 -24 -23 -26 -23 -26 -23 -26 -22 -27 -22 -28 -22 -28 -21 -29 -21 -29 -21 -30 -21 -31 -20 -31 -20 -31 -20 -32 -19 -33 -19 -33 -19 73 -132 35 20 35 20 34 21 33 21 33 21 33 21 31 22 32 22 30 23 30 23 30 23 29 24 28 24 28 24 28 24 26 25 27 26 25 25 25 26 25 26 23 27 24 27 22 27 23 28 21 28 21 28 20 29 20 28 19 30 19 29 18 30 18 31 0 0zm0 0l0 0 0 0 0 0zm271 1116l-151 0 0 0 0 -37 -1 -37 -1 -36 -2 -36 -2 -36 -3 -36 -3 -35 -4 -35 -4 -34 -5 -35 -5 -34 -5 -34 -7 -33 -6 -34 -7 -32 -8 -33 -8 -33 -9 -32 -9 -32 -9 -31 -11 -31 -10 -31 -11 -31 -12 -31 -12 -30 -12 -30 -14 -29 -13 -30 -14 -29 -15 -29 -15 -28 -15 -28 132 -74 16 30 17 31 15 31 16 32 14 32 14 32 14 32 13 33 12 32 12 34 12 33 11 34 10 34 10 34 9 34 9 35 8 35 8 36 7 35 6 36 6 36 6 37 5 36 4 37 4 37 4 38 3 37 2 38 2 39 1 38 1 39 0 39 0 0zm-297 1176l-133 -71 0 0 17 -33 16 -32 16 -33 16 -33 15 -33 14 -33 14 -34 14 -33 12 -34 13 -33 11 -34 12 -34 10 -34 10 -34 10 -34 9 -35 8 -34 8 -35 8 -35 7 -35 6 -35 6 -35 5 -35 5 -36 4 -36 3 -35 3 -36 3 -36 2 -37 1 -36 1 -37 0 -36 151 0 0 39 -1 38 -1 39 -2 39 -3 38 -3 38 -4 39 -4 38 -5 37 -6 38 -6 38 -7 37 -7 37 -8 37 -8 37 -10 37 -9 37 -10 37 -11 36 -11 36 -12 36 -13 36 -13 36 -14 36 -14 35 -15 36 -15 35 -16 35 -16 35 -17 35 -18 35 -18 34 0 0zm-676 606l151 -5 -122 -57 20 -16 19 -16 20 -16 19 -17 19 -16 18 -17 19 -17 18 -18 18 -17 17 -18 18 -18 17 -18 17 -18 16 -19 17 -19 16 -19 16 -19 15 -20 16 -20 15 -19 15 -21 15 -20 14 -21 14 -21 14 -21 14 -21 14 -22 13 -22 13 -22 13 -22 12 -22 13 -23 133 71 -13 25 -14 24 -14 24 -14 23 -14 24 -14 23 -15 23 -15 23 -16 22 -15 22 -16 22 -16 22 -17 22 -16 21 -17 21 -17 21 -18 20 -17 21 -18 20 -19 20 -18 19 -19 20 -19 19 -19 19 -20 19 -19 18 -21 18 -20 18 -20 18 -21 18 -22 17 -21 17 -122 -57zm122 57l-117 92 -5 -149 122 57zm-16 -1366l45 1304 -151 5 -45 -1304 4 -26 147 21zm-151 5l0 -13 4 -13 -4 26z"/>
</symbol>
<symbol id="ratchet" viewBox="0 0 72424 48854">
  <path d="M34522 48854c0,-2786 -238,-16034 233,-18193 510,-2334 507,-3286 507,-5772 0,-2704 -97,-24005 252,-24535 349,-531 1122,-415 1460,21 339,436 186,21180 170,23688 6,6315 831,5960 832,12067 0,2149 -14,4298 -13,6446l1 5634c-3,565 52,523 -392,574 -344,-24 -391,55 -372,-1240l-13 -11562 -1998 3c-48,1762 -1,7624 6,10062 1,557 -1,1111 12,1668 27,1121 218,1089 -685,1139zm1112 -581l1124 0c91,0 165,75 165,166l0 250c0,91 -74,165 -165,165l-1124 0c-90,0 -165,-74 -165,-165l0 -250c0,-91 74,-166 165,-166zm0 -969l1124 0c91,0 165,74 165,165l0 339c0,91 -74,165 -165,165l-1124 0c-91,0 -165,-74 -165,-165l0 -339c0,-91 74,-165 165,-165zm0 -970l1124 0c91,0 165,74 165,165l0 339c0,91 -74,165 -165,165l-1124 0c-91,0 -165,-74 -165,-165l0 -339c0,-91 74,-165 165,-165zm0 -970l1124 0c91,0 165,74 165,165l0 339c0,91 -74,166 -165,166l-1124 0c-91,0 -165,-75 -165,-166l0 -339c0,-91 74,-165 165,-165zm-12 -970l1125 0c91,0 165,75 165,166l0 339c0,91 -74,165 -165,165l-1125 0c-90,0 -165,-74 -165,-165l0 -339c0,-91 75,-166 165,-166zm0 -969l1125 0c91,0 165,74 165,165l0 339c0,91 -74,165 -165,165l-1125 0c-90,0 -165,-74 -165,-165l0 -339c0,-91 75,-165 165,-165zm0 -980l1125 0c91,0 165,75 165,166l0 339c0,91 -74,165 -165,165l-1125 0c-90,0 -165,-74 -165,-165l0 -339c0,-91 75,-166 165,-166zm23 -979l1124 0c91,0 166,75 166,166l0 339c0,90 -75,165 -166,165l-1124 0c-90,0 -165,-75 -165,-165l0 -339c0,-91 75,-166 165,-166zm-11 -979l1124 0c91,0 165,74 165,165l0 339c0,91 -74,166 -165,166l-1124 0c-91,0 -165,-75 -165,-166l0 -339c0,-91 74,-165 165,-165zm-24453 5412c-398,824 -1299,1453 -2454,898 -1407,-675 -903,-980 -2308,157 -1545,1250 -3669,1378 -5197,70 -1263,-1081 -1824,-3929 -314,-5245 987,-861 4599,-1765 5835,-649 -268,532 -411,408 -1056,633 -888,310 -3422,1237 -2197,2493 1404,1440 5639,-2949 7608,-332 -4019,34 -2516,2415 83,1975zm10338 -683c-695,14 -733,-88 -1146,168 -515,875 -1146,1657 -2339,1788 -1353,149 -2418,-545 -2777,-1279 667,-3 2162,75 2631,-194 1200,-686 57,-1585 -820,-1771 -196,-41 -444,-35 -648,-37 -392,-3 -794,7 -1188,7 474,-890 1861,-1588 3344,-1162 2000,573 692,1738 2964,1749l-21 731zm-11679 -985l7206 0c1416,245 1330,1267 -123,1387l-6805 12c-1464,-82 -1709,-1149 -278,-1399zm24429 1979l-12403 -13 3 -2446 12385 -18 15 2477zm16183 -2418l-4 2525 -12195 -18 -13 -2566 12212 59zm3785 1000c22,-1011 3259,-664 4774,-664 1263,74 4315,-373 4301,795 -12,1057 -3114,710 -4407,761 -1305,-49 -4699,453 -4668,-892zm7041 -927c261,-509 654,-867 1497,-974 2255,-487 4607,2504 5937,1392 1800,-1504 -2581,-2419 -3133,-3141 1144,-1100 4361,-384 5566,416 3389,2248 -534,8890 -5038,5542 -1050,-780 -1051,-1202 -2301,-437 -1093,669 -2189,203 -2540,-616 2606,74 3861,-2105 12,-2182zm-10523 1389c-15,-199 -4,-497 -5,-754l1059 -77c1565,-2593 4308,-2102 5195,-488 -953,-7 -3014,-231 -3040,961 -28,1278 1933,953 2998,1093 -313,304 -243,575 -1003,926 -2625,1209 -3726,-1120 -4172,-1644l-1032 -17z"/>
</symbol>
<symbol id="ruble" viewBox="0 0 12047 17812">
  <path d="M6314 2064c2086,-46 3826,2123 3089,4531 -314,1023 -925,1766 -1774,2186 -1076,434 -2300,365 -3592,347 -20,-388 -31,-6709 -20,-7055l2297 -9zm4332 11723l3 -1749c-372,9 -5816,-30 -6633,-34l-14 -1054c2070,-16 4027,207 5801,-1025 614,-427 1140,-968 1541,-1682 1557,-2770 583,-7128 -3485,-8041 -1274,-286 -4751,-185 -6316,-183l-10 9121 -1512 -3c2,256 -15,1503 -7,1799l1539 9 -2 1076 -1551 6 9 1779 1533 -1 6 3991 2441 16 -1 -3997 6658 -28z"/>
</symbol>
<symbol id="strop" viewBox="0 0 12552 21868">
   <path d="M5730 13790c121,-526 -305,-707 -667,-860 -381,-161 -736,-311 -1109,-471 -342,-147 -806,-425 -1172,-154 -246,182 -394,675 -536,1014 -307,735 -618,1457 -932,2195 -136,320 -883,2022 -924,2203 -61,269 29,455 165,606 175,193 1333,629 1619,750 382,162 766,414 1169,144 221,-148 395,-703 530,-1018 141,-331 1803,-4173 1857,-4409z"/>
   <path d="M5362 9876c330,-41 518,-622 623,-970 129,-431 153,-877 198,-1353 92,-952 180,-1897 270,-2851 100,-1057 436,-1633 1025,-2105 629,-502 1641,-641 2249,-17 646,662 724,1521 395,2376 -262,680 -880,1225 -1395,1733 -531,526 -1059,1012 -1570,1557 -257,273 -1276,1246 -1095,1947 138,-50 365,-328 481,-444l2261 -2162c859,-929 1961,-1578 2262,-3043 109,-530 90,-1109 -62,-1598 -765,-2454 -4086,-2213 -5037,445 -266,742 -291,2287 -359,3175 -83,1100 -184,2211 -246,3310z"/>
   <path d="M3918 8726c-200,141 -373,471 -295,812 25,108 1148,1961 1276,2128 554,-363 42,-1186 -172,-1559l-774 -1347c-3,-4 -14,-6 -17,-17 -2,-11 -11,-12 -18,-17z"/>
   <path d="M4216 7489c-261,81 -446,536 -368,748l1208 2108c193,-69 185,-149 319,-289l-179 -100c18,-231 108,-602 -1,-791 -150,-262 -928,-1523 -979,-1676z"/>
   <path d="M3697 10061c-189,142 -304,498 -224,828 42,170 291,533 381,690 133,234 271,471 407,701 143,243 246,344 652,443 86,-360 98,-529 -75,-832 -97,-173 -1023,-1766 -1141,-1830z"/>
   <path d="M5876 10207c-126,452 -37,798 8,1277 32,331 54,961 130,1251 944,-464 461,-1419 354,-2564 -132,88 -166,140 -270,217 -87,-64 -146,-115 -222,-181z"/>
   <path d="M5106 12127c43,218 16,475 42,717 99,33 174,61 271,109 65,32 53,25 120,70l117 74c272,-335 148,-786 105,-1237 -40,-421 -114,-932 -120,-1342 -702,152 -156,503 -443,1046 -136,255 -192,64 -92,563z"/>
   <path d="M7033 9511c-68,34 -75,36 -144,112 -441,507 -415,183 -291,921 65,392 131,981 235,1341 214,-58 382,-191 489,-347 150,-219 78,-400 21,-668 -92,-426 -252,-945 -310,-1359z"/>
   <path d="M724 19321c-176,99 -323,328 -334,603 -8,204 173,496 254,678l595 1266c465,-536 318,-696 58,-1286 -179,-406 -422,-848 -573,-1261z"/>
   <path d="M7202 9296c-6,145 358,1721 413,1803 428,-121 618,-489 464,-995 -89,-290 -281,-1002 -409,-1230l-468 422z"/>
   <path d="M1607 20875c55,-40 15,-2 73,-66 22,-24 24,-29 42,-55 310,-463 131,-718 -61,-1137 -222,-486 -237,-739 -485,-841 -102,-41 -214,-97 -322,-121 -152,251 -68,426 27,638l726 1582z"/>
   <path d="M4386 6430c-433,553 -124,847 149,1310 129,218 586,1036 707,1149 58,-122 105,-647 58,-807 -34,-119 -776,-1554 -914,-1652z"/>
   <path d="M4589 5366c-467,344 -100,840 111,1228 100,184 542,1069 630,1150 85,-134 73,-562 91,-768 25,-296 -74,-369 -200,-585 -132,-224 -490,-882 -632,-1025z"/>
   <path d="M7829 8693c15,407 401,1177 472,1660 234,-11 410,-144 468,-308 73,-204 -451,-1688 -491,-1742l-449 390z"/>
   <path d="M8878 7738c-532,455 -476,353 -319,874 107,354 262,764 342,1109 178,-48 307,-188 382,-359 89,-203 -5,-373 -61,-560 -51,-173 -279,-969 -344,-1064z"/>
   <path d="M4866 4346c-131,60 -272,310 -274,539 -1,179 441,881 558,1071 93,150 202,379 306,501 24,-228 35,-451 53,-680 27,-335 47,-307 -105,-549 -119,-189 -420,-769 -538,-882z"/>
   <path d="M9497 7137c-270,253 -511,305 -341,878 105,353 209,699 313,1037 175,-51 291,-175 372,-333 103,-200 30,-349 -27,-540 -101,-340 -195,-716 -317,-1042z"/>
   <path d="M10079 6564c-433,385 -456,419 -326,855l269 899c28,75 23,65 57,116 165,-52 301,-205 363,-346 88,-199 19,-346 -39,-530 -63,-205 -237,-867 -324,-994z"/>
   <path d="M11035 5249c-29,27 -22,18 -51,60 -4,6 -9,14 -13,20 -4,7 -9,15 -12,22 -15,26 -33,71 -51,107 -217,442 -292,317 -157,615 94,207 278,681 402,808 278,-78 551,-394 318,-803 -129,-226 -351,-603 -436,-829z"/>
   <path d="M5122 3269c-158,69 -249,258 -282,450 -42,241 80,363 178,537 170,301 345,611 529,899 43,-224 121,-955 39,-1119 -129,-258 -333,-510 -464,-767z"/>
   <path d="M10553 6055c-70,56 -247,244 -284,313 -63,118 36,330 76,458l289 890c2,-5 8,15 13,22 284,-98 467,-496 314,-831 -102,-225 -279,-665 -408,-852z"/>
   <path d="M5942 3057c176,-581 444,-397 207,-785 -105,-171 -345,-624 -461,-746 -135,45 -246,174 -296,312 -110,305 91,476 306,853 34,58 64,106 107,178l137 188z"/>
   <path d="M10943 2390c194,407 47,369 542,454 195,34 692,138 853,126 51,-333 -45,-670 -394,-655 -265,12 -762,25 -1001,75z"/>
   <path d="M11207 4623c-117,544 -171,319 97,802 109,197 314,545 381,732 176,-59 301,-171 350,-366 66,-267 -57,-332 -187,-466 -143,-147 -495,-611 -641,-702z"/>
   <path d="M10591 1878c69,120 181,213 243,348 285,-15 571,-41 855,-55 146,-7 354,30 365,-95 10,-102 -72,-269 -126,-339 -197,-257 -285,-183 -621,-80 -202,61 -542,142 -716,221z"/>
   <path d="M11290 4056c-16,280 -85,304 83,479 174,181 645,782 796,851 443,-434 129,-631 -94,-795 -134,-99 -677,-508 -785,-535z"/>
   <path d="M11417 3922l968 680 131 -190c147,-418 -195,-494 -339,-555 -287,-120 -607,-268 -897,-365 16,276 -29,309 137,430z"/>
   <path d="M7932 112l-132 1130c448,-85 395,-111 540,-468 71,-174 261,-562 286,-723 -326,-87 -423,-59 -694,61z"/>
   <path d="M6755 1888c93,-49 1,5 83,-57l268 -199 -124 -1168c-924,56 -340,902 -227,1424z"/>
   <path d="M12155 3117c-327,-50 -641,-113 -972,-153 38,333 62,330 180,382l1085 435c111,-151 226,-584 -293,-664z"/>
   <path d="M7261 1510l384 -188c4,-375 62,-800 114,-1168 -210,-68 -610,26 -601,398 7,322 76,647 103,958z"/>
   <path d="M10145 1504c342,231 189,283 692,125l677 -208c80,-35 31,-7 79,-46 -57,-179 -131,-266 -256,-343 -196,-120 -270,-74 -438,26 -152,91 -669,351 -754,446z"/>
   <path d="M6382 2317c78,-102 151,-190 252,-273l-363 -1129c-329,76 -553,351 -340,690 90,144 365,636 451,712z"/>
   <path d="M9623 1217c362,237 375,156 713,-26 134,-72 571,-301 647,-385 -56,-121 -165,-230 -308,-281 -248,-89 -295,-25 -421,109 -124,133 -576,479 -631,583z"/>
   <path d="M8393 1100c552,-44 398,5 663,-369 94,-132 365,-481 397,-620 -131,-48 -259,-119 -444,-92 -229,34 -220,88 -294,276 -101,252 -246,542 -322,805z"/>
   <path d="M9011 1085c529,94 354,140 973,-436 97,-90 199,-148 277,-247 -66,-109 -188,-205 -375,-225 -268,-28 -279,51 -388,207l-487 701z"/>
   <path d="M317 20352c-122,78 -226,240 -279,427 -82,293 -32,344 152,467 142,94 261,179 412,282 123,84 275,192 409,261l-694 -1437z"/>
   <path d="M5273 2357c-445,515 89,865 377,1491 24,-35 10,-7 38,-72 4,-9 14,-39 17,-49 12,-35 14,-58 24,-100 22,-92 35,-130 67,-218 71,-196 5,-224 -88,-381 -88,-150 -327,-600 -435,-671z"/>
   <path d="M3476 11295c-213,111 -270,449 -250,765 351,68 592,244 910,337 -27,-62 -558,-1003 -660,-1102z"/>
   <path d="M1554 18945c132,250 276,788 437,968 148,-126 267,-409 267,-658 -177,-133 -488,-222 -704,-310z"/>
</symbol>
<symbol id="travers" viewBox="0 0 38365 31537">
   <polygon points="0,26743 38365,26713 38360,23219 13,23216 0,23384 "/>
   <path d="M34739 26989c397,791 713,2078 1244,2283 -143,-266 -447,-449 -297,-971 215,-743 1299,-726 1530,-20 178,545 -204,808 -271,955 677,-343 505,-1349 500,-2268l-2706 21z"/>
   <path d="M36361 20631c267,266 658,60 956,518 490,750 -507,1677 -1236,1009 -413,-377 -96,-651 -404,-1032l-793 1864 2700 0c0,-1185 275,-2499 -1223,-2359z"/>
   <path d="M17613 4598c242,-147 110,-183 26,-477 -100,-349 -60,-1786 -59,-2199 1,-900 400,-1585 1347,-1694 938,-108 1656,493 1762,1290 89,678 42,2267 -124,2905l165 136c256,-622 275,-2343 175,-3080 -266,-1978 -3358,-1998 -3534,98 -55,645 -109,2635 242,3021z"/>
   <path d="M14829 7851c-145,73 -6652,6662 -7502,7516l-821 819c-83,90 -204,323 25,202 190,-101 4044,-4037 4291,-4286l1083 -1050c371,-377 711,-719 1082,-1096 364,-369 696,-704 1060,-1073 88,-89 924,-869 913,-977 -6,-74 -60,-91 -131,-55z"/>
   <path d="M23493 7894l-5 61c20,100 -24,0 26,85l3114 3107c372,376 711,719 1083,1096 1255,1271 2495,2555 3784,3793 436,419 376,459 551,366 -92,-228 -5902,-5983 -6362,-6443 -115,-116 -1947,-2038 -2096,-2072 -86,-19 -47,-12 -95,7z"/>
   <path d="M31745 17032c231,217 1511,1451 1672,1599l545 -589c-494,-551 -1305,-1353 -1586,-1614 -171,142 -501,460 -631,604z"/>
   <path d="M4481 18051c203,196 362,319 563,526 578,-500 1118,-1041 1648,-1591 -153,-159 -463,-476 -625,-600 -451,479 -1360,1413 -1586,1665z"/>
   <path d="M37202 21692c124,-703 -682,-695 -840,-769 -234,-110 -624,-658 -824,-854 -439,-431 -539,-783 -855,-754 -187,243 85,435 264,618l1007 1172c166,265 59,477 138,680 193,497 1005,499 1110,-93zm-578 -398c158,0 286,130 286,289 0,160 -128,290 -286,290 -158,0 -287,-130 -287,-290 0,-159 129,-289 287,-289z"/>
   <path d="M2718 19779c333,-251 82,-548 570,-874 267,-178 775,-403 1134,-254 96,382 -96,848 -287,1101 -450,598 -675,196 -789,610 751,156 1184,-584 1280,-1116l151 -632 -359 -333c-73,10 -149,74 -290,101 -123,23 -238,20 -364,45 -624,124 -1379,728 -1046,1352z"/>
   <path d="M35033 20420c-124,-252 -137,-199 -392,-315 -445,-203 -890,-1269 -544,-1437 331,-160 934,197 1116,320 524,355 87,681 495,899 171,-568 -63,-934 -414,-1162 -487,-316 -877,-207 -1264,-420l-382 400c206,399 127,742 400,1175 202,321 441,586 985,540z"/>
   <path d="M14946 7505l300 326c241,-189 1330,-1293 1635,-1593l-300 -339c-218,178 -1368,1332 -1635,1606z"/>
   <path d="M36984 28784c348,-754 -863,-1133 -1073,-438 -145,479 189,588 303,847 168,382 -31,2074 98,2269 86,130 270,86 312,-93 24,-101 9,-462 9,-589 -1,-393 -5,-789 -2,-1182 6,-570 214,-513 353,-814zm-523 -508c159,0 289,129 289,289 0,160 -130,289 -289,289 -160,0 -290,-129 -290,-289 0,-160 130,-289 290,-289z"/>
   <path d="M18164 5173c678,400 1411,328 2029,-21 -138,-218 -127,-178 -365,-64 -665,318 -1135,42 -1530,-71l-134 156z"/>
   <path d="M16852 5824l99 114c184,-196 1646,-1560 1626,-1701 -3,-2 15,-166 -234,92l-1491 1495z"/>
   <path d="M30548 15625c57,197 382,438 540,590 76,74 478,562 598,511 207,-88 -99,-287 -421,-596 -179,-173 -443,-460 -627,-584l-90 79z"/>
   <path d="M6740 16697c132,-21 195,-125 291,-219 218,-211 721,-658 852,-853l-101 -120 -905 865c-159,147 -248,149 -137,327z"/>
   <path d="M23456 7505l-300 326c-240,-189 -1330,-1293 -1635,-1593l301 -339c218,178 1367,1332 1634,1606z"/>
   <path d="M21551 5824l-100 114c-183,-196 -1646,-1560 -1626,-1701 4,-2 -14,-166 235,92l1491 1495z"/>
   <path d="M3574 26989c-397,791 -713,2078 -1244,2283 144,-266 447,-449 297,-971 -215,-743 -1299,-726 -1530,-20 -178,545 204,808 271,955 -677,-343 -505,-1349 -500,-2268l2706 21z"/>
   <path d="M1329 28784c-348,-754 863,-1133 1073,-438 145,479 -189,588 -303,847 -168,382 31,2074 -98,2269 -85,130 -270,86 -312,-93 -24,-101 -9,-462 -9,-589 1,-393 5,-789 2,-1182 -6,-570 -214,-513 -353,-814zm523 -508c-159,0 -289,129 -289,289 0,160 130,289 289,289 160,0 290,-129 290,-289 0,-160 -130,-289 -290,-289z"/>
   <path d="M1960 20631c-266,266 -657,60 -956,518 -489,750 507,1677 1237,1009 412,-377 96,-651 404,-1032l793 1864 -2701 0c0,-1185 -275,-2499 1223,-2359z"/>
   <path d="M1120 21692c-124,-703 682,-695 839,-769 235,-110 625,-658 824,-854 440,-431 539,-783 855,-754 188,243 -84,435 -264,618l-1006 1172c-166,265 -59,477 -139,680 -193,497 -1005,499 -1109,-93zm578 -398c-159,0 -287,130 -287,289 0,160 128,290 287,290 158,0 286,-130 286,-290 0,-159 -128,-289 -286,-289z"/>
</symbol>
</svg>
