<svg xmlns="http://www.w3.org/2000/svg" xml:space="preserve" width="608px" height="500px" version="1.1" style="shape-rendering:geometricPrecision; text-rendering:geometricPrecision; image-rendering:optimizeQuality; fill-rule:evenodd; clip-rule:evenodd" viewBox="0 0 38365 31537" xmlns:xlink="http://www.w3.org/1999/xlink">
   <polygon points="0,26743 38365,26713 38360,23219 13,23216 0,23384 "/>
   <path d="M34739 26989c397,791 713,2078 1244,2283 -143,-266 -447,-449 -297,-971 215,-743 1299,-726 1530,-20 178,545 -204,808 -271,955 677,-343 505,-1349 500,-2268l-2706 21z"/>
   <path d="M36361 20631c267,266 658,60 956,518 490,750 -507,1677 -1236,1009 -413,-377 -96,-651 -404,-1032l-793 1864 2700 0c0,-1185 275,-2499 -1223,-2359z"/>
   <path d="M17613 4598c242,-147 110,-183 26,-477 -100,-349 -60,-1786 -59,-2199 1,-900 400,-1585 1347,-1694 938,-108 1656,493 1762,1290 89,678 42,2267 -124,2905l165 136c256,-622 275,-2343 175,-3080 -266,-1978 -3358,-1998 -3534,98 -55,645 -109,2635 242,3021z"/>
   <path d="M14829 7851c-145,73 -6652,6662 -7502,7516l-821 819c-83,90 -204,323 25,202 190,-101 4044,-4037 4291,-4286l1083 -1050c371,-377 711,-719 1082,-1096 364,-369 696,-704 1060,-1073 88,-89 924,-869 913,-977 -6,-74 -60,-91 -131,-55z"/>
   <path d="M23493 7894l-5 61c20,100 -24,0 26,85l3114 3107c372,376 711,719 1083,1096 1255,1271 2495,2555 3784,3793 436,419 376,459 551,366 -92,-228 -5902,-5983 -6362,-6443 -115,-116 -1947,-2038 -2096,-2072 -86,-19 -47,-12 -95,7z"/>
   <path d="M31745 17032c231,217 1511,1451 1672,1599l545 -589c-494,-551 -1305,-1353 -1586,-1614 -171,142 -501,460 -631,604z"/>
   <path d="M4481 18051c203,196 362,319 563,526 578,-500 1118,-1041 1648,-1591 -153,-159 -463,-476 -625,-600 -451,479 -1360,1413 -1586,1665z"/>
   <path d="M37202 21692c124,-703 -682,-695 -840,-769 -234,-110 -624,-658 -824,-854 -439,-431 -539,-783 -855,-754 -187,243 85,435 264,618l1007 1172c166,265 59,477 138,680 193,497 1005,499 1110,-93zm-578 -398c158,0 286,130 286,289 0,160 -128,290 -286,290 -158,0 -287,-130 -287,-290 0,-159 129,-289 287,-289z"/>
   <path d="M2718 19779c333,-251 82,-548 570,-874 267,-178 775,-403 1134,-254 96,382 -96,848 -287,1101 -450,598 -675,196 -789,610 751,156 1184,-584 1280,-1116l151 -632 -359 -333c-73,10 -149,74 -290,101 -123,23 -238,20 -364,45 -624,124 -1379,728 -1046,1352z"/>
   <path d="M35033 20420c-124,-252 -137,-199 -392,-315 -445,-203 -890,-1269 -544,-1437 331,-160 934,197 1116,320 524,355 87,681 495,899 171,-568 -63,-934 -414,-1162 -487,-316 -877,-207 -1264,-420l-382 400c206,399 127,742 400,1175 202,321 441,586 985,540z"/>
   <path d="M14946 7505l300 326c241,-189 1330,-1293 1635,-1593l-300 -339c-218,178 -1368,1332 -1635,1606z"/>
   <path d="M36984 28784c348,-754 -863,-1133 -1073,-438 -145,479 189,588 303,847 168,382 -31,2074 98,2269 86,130 270,86 312,-93 24,-101 9,-462 9,-589 -1,-393 -5,-789 -2,-1182 6,-570 214,-513 353,-814zm-523 -508c159,0 289,129 289,289 0,160 -130,289 -289,289 -160,0 -290,-129 -290,-289 0,-160 130,-289 290,-289z"/>
   <path d="M18164 5173c678,400 1411,328 2029,-21 -138,-218 -127,-178 -365,-64 -665,318 -1135,42 -1530,-71l-134 156z"/>
   <path d="M16852 5824l99 114c184,-196 1646,-1560 1626,-1701 -3,-2 15,-166 -234,92l-1491 1495z"/>
   <path d="M30548 15625c57,197 382,438 540,590 76,74 478,562 598,511 207,-88 -99,-287 -421,-596 -179,-173 -443,-460 -627,-584l-90 79z"/>
   <path d="M6740 16697c132,-21 195,-125 291,-219 218,-211 721,-658 852,-853l-101 -120 -905 865c-159,147 -248,149 -137,327z"/>
   <path d="M23456 7505l-300 326c-240,-189 -1330,-1293 -1635,-1593l301 -339c218,178 1367,1332 1634,1606z"/>
   <path d="M21551 5824l-100 114c-183,-196 -1646,-1560 -1626,-1701 4,-2 -14,-166 235,92l1491 1495z"/>
   <path d="M3574 26989c-397,791 -713,2078 -1244,2283 144,-266 447,-449 297,-971 -215,-743 -1299,-726 -1530,-20 -178,545 204,808 271,955 -677,-343 -505,-1349 -500,-2268l2706 21z"/>
   <path d="M1329 28784c-348,-754 863,-1133 1073,-438 145,479 -189,588 -303,847 -168,382 31,2074 -98,2269 -85,130 -270,86 -312,-93 -24,-101 -9,-462 -9,-589 1,-393 5,-789 2,-1182 -6,-570 -214,-513 -353,-814zm523 -508c-159,0 -289,129 -289,289 0,160 130,289 289,289 160,0 290,-129 290,-289 0,-160 -130,-289 -290,-289z"/>
   <path d="M1960 20631c-266,266 -657,60 -956,518 -489,750 507,1677 1237,1009 412,-377 96,-651 404,-1032l793 1864 -2701 0c0,-1185 -275,-2499 1223,-2359z"/>
   <path d="M1120 21692c-124,-703 682,-695 839,-769 235,-110 625,-658 824,-854 440,-431 539,-783 855,-754 188,243 -84,435 -264,618l-1006 1172c-166,265 -59,477 -139,680 -193,497 -1005,499 -1109,-93zm578 -398c-159,0 -287,130 -287,289 0,160 128,290 287,290 158,0 286,-130 286,-290 0,-159 -128,-289 -286,-289z"/>
</svg>
