<?xml version="1.0" encoding="UTF-8"?>
<!DOCTYPE svg PUBLIC "-//W3C//DTD SVG 1.1//EN" "http://www.w3.org/Graphics/SVG/1.1/DTD/svg11.dtd">
<!-- Creator: CorelDRAW X8 -->
<svg xmlns="http://www.w3.org/2000/svg" xml:space="preserve" width="30px" height="35px" version="1.1" style="shape-rendering:geometricPrecision; text-rendering:geometricPrecision; image-rendering:optimizeQuality; fill-rule:evenodd; clip-rule:evenodd"
viewBox="0 0 98 113"
 xmlns:xlink="http://www.w3.org/1999/xlink">
 <defs>
  <style type="text/css">
   <![CDATA[
    .fil0 {fill:#FEFEFE}
   ]]>
  </style>
 </defs>
 <g id="Слой_x0020_1">
  <metadata id="CorelCorpID_0Corel-Layer"/>
  <path class="fil0" d="M76 97l-44 0c-3,0 -7,-4 -7,-7l0 -24c0,-3 4,-7 7,-7l44 0 0 -9 0 -10 -18 0c-7,0 -13,-6 -13,-13l0 -18 -32 0c-2,0 -4,2 -4,4l0 87c0,2 2,4 4,4l59 0c2,0 4,-2 4,-4l0 -3zm9 0l6 0c4,0 7,-4 7,-7l0 -24c0,-3 -3,-7 -7,-7l-6 0 0 -24 0 0c-1,-3 -2,-5 -4,-7l-24 -24c-2,-2 -5,-3 -7,-4l0 0 -1 0 -36 0c-7,0 -13,6 -13,13l0 88c0,6 6,12 13,12l59 0c7,0 13,-6 13,-13l0 -3zm-31 -83l18 19 -14 0c-3,0 -4,-2 -4,-5l0 -14zm-19 49l53 0c4,0 6,2 6,6l0 18c0,4 -2,5 -6,5l-53 0c-4,0 -6,-1 -6,-5l0 -18c0,-4 2,-6 6,-6zm3 24l0 -18 8 0c4,0 6,2 6,5 0,4 -3,6 -8,7l0 -3c3,-1 4,-2 4,-4 0,-1 0,-2 -2,-2l-4 0 0 15 -4 0zm24 -3c3,0 5,-2 5,-6 0,-4 -2,-6 -5,-6l-4 0 0 12 4 0zm-8 3l0 -18 8 0c6,0 9,3 9,9 0,6 -3,9 -9,9l-8 0zm32 -18l0 3 -9 0 0 5 8 0 0 3 -8 0 0 7 -3 0 0 -18 12 0z"/>
 </g>
</svg>
