<?xml version="1.0" encoding="UTF-8"?>
<!DOCTYPE svg PUBLIC "-//W3C//DTD SVG 1.1//EN" "http://www.w3.org/Graphics/SVG/1.1/DTD/svg11.dtd">
<!-- Creator: CorelDRAW X8 -->
<svg xmlns="http://www.w3.org/2000/svg" xml:space="preserve" width="34px" height="24px" version="1.1" style="shape-rendering:geometricPrecision; text-rendering:geometricPrecision; image-rendering:optimizeQuality; fill-rule:evenodd; clip-rule:evenodd"
viewBox="0 0 117 83"
 xmlns:xlink="http://www.w3.org/1999/xlink">
 <defs>
  <style type="text/css">
   <![CDATA[
    .fil0 {fill:white;fill-rule:nonzero}
   ]]>
  </style>
 </defs>
 <g id="Слой_x0020_1">
  <metadata id="CorelCorpID_0Corel-Layer"/>
  <g id="_1006649216">
   <path class="fil0" d="M110 3l-52 51 -52 -50c0,-1 0,-1 0,-1 2,-2 5,-3 8,-3l88 0c4,0 7,1 9,3 0,0 0,0 -1,0z"/>
   <path class="fil0" d="M2 73c0,0 -1,0 -1,1 -1,-2 -1,-4 -1,-6l0 -54c0,-1 0,-1 0,-2l32 31c-13,13 -27,27 -30,30z"/>
   <path class="fil0" d="M39 50l15 14c1,1 3,2 4,2 1,0 2,-1 3,-2l16 -15 32 32c-2,1 -4,2 -7,2l-88 0c-2,0 -4,-1 -6,-2 4,-3 12,-11 31,-31z"/>
   <path class="fil0" d="M116 12c1,0 1,1 1,2l0 54c0,2 -1,4 -1,6l-32 -32 32 -30z"/>
  </g>
 </g>
</svg>
